<?xml version="1.0" standalone="no"?>
<!DOCTYPE svg PUBLIC "-//W3C//DTD SVG 1.1//EN" "http://www.w3.org/Graphics/SVG/1.1/DTD/svg11.dtd" >
<svg xmlns="http://www.w3.org/2000/svg">
<metadata>Generated by IcoMoon</metadata>
<defs>
<font id="Garment" horiz-adv-x="1024">
<font-face units-per-em="1024" ascent="960" descent="-64" />
<missing-glyph horiz-adv-x="1024" />
<glyph unicode="&#x20;" horiz-adv-x="512" d="" />
<glyph unicode="&#xe900;" horiz-adv-x="922" d="M298.189 519.885h-90.368v-89.856h90.368v89.856zM478.874 519.885h-90.368v-89.856h90.368v89.856zM659.61 519.885h-90.368v-89.856h90.317v89.856zM749.926 834.253h-45.158v89.805h-90.368v-89.805h-361.421v89.805h-90.368v-89.805h-45.158c-50.176 0-89.907-40.448-89.907-89.856l-0.41-628.685c0.145-49.657 40.434-89.856 90.112-89.856 0.090 0 0.18 0 0.27 0h632.46c49.664 0 90.368 40.448 90.368 89.856v628.685c0 49.408-40.653 89.856-90.368 89.856zM749.926 115.661h-632.474v494.029h632.474v-494.080z" />
<glyph unicode="&#xe901;" horiz-adv-x="922" d="M885.504 183.040c0-111.609-91.027-202.086-203.315-202.086s-203.315 90.477-203.315 202.086c0 111.609 91.027 202.086 203.315 202.086s203.315-90.477 203.315-202.086z" />
<glyph unicode="&#xe902;" horiz-adv-x="922" d="M702.822 286.003h-41.318v-82.381h-82.944v-41.165h82.842v-82.33h41.37v82.33h82.842v41.165h-82.79v82.381zM682.138 388.915c-114.33 0-207.053-92.211-207.053-205.824 0-113.664 92.774-205.875 207.053-205.875s207.053 92.211 207.053 205.824c0 113.664-92.774 205.824-207.053 205.824zM682.138 18.381c-91.341 0-165.632 73.882-165.632 164.659s74.291 164.71 165.632 164.71c91.29 0 165.632-73.933 165.632-164.71s-74.342-164.659-165.632-164.659z" />
<glyph unicode="&#xe903;" glyph-name="addmenu" horiz-adv-x="1570" d="M930.475 675.533h-872.311v-142.199h872.311v142.199zM930.475 960h-872.311v-142.199h872.311v142.199zM1221.222 391.134v284.399h-145.408v-284.399h-290.748v-142.268h290.816v-284.399h145.34v284.399h290.816v142.268h-290.816zM58.163 248.866h581.495v142.268h-581.495v-142.268z" />
<glyph unicode="&#xe904;" glyph-name="approvalhistory" horiz-adv-x="1109" d="M646.4 711.253l-5.632-260.267-266.667-258.56-56.747 53.845 244.224 236.8 4.949 229.803 79.872-1.621zM1072.043 634.027c23.893-58.027 37.205-121.259 37.291-187.477 0-281.6-238.677-510.549-532.053-510.549-243.2 0-448.597 157.355-511.915 371.456l73.643 31.829c49.835-187.563 227.413-326.656 438.187-326.656 249.429 0 452.267 194.645 452.267 433.92 0 38.741-5.376 76.459-15.36 112.299h-0.853c-6.104 22.952-13.068 42.45-21.418 61.195l1.023-2.571c-69.291 154.539-229.461 262.997-415.573 262.997-77.568 0-150.528-18.859-214.357-52.053-83.532-45.416-149.2-114.657-188.988-198.557l-1.134-2.659 102.4 61.44 42.411-64.853-206.421-123.904-60.16 24.661-51.029 234.325 78.080 15.616 22.187-102.059c51.203 96.735 128.727 173.683 223.057 222.794l2.905 1.377c73.473 39.924 160.885 63.396 253.78 63.396 3.241 0 6.476-0.029 9.704-0.085l-0.486 0.007c221.269-3.413 408.661-138.496 482.816-325.973z" />
<glyph unicode="&#xe905;" glyph-name="approvals" horiz-adv-x="956" d="M538.795 458.001c-28.302 9.878-60.928 15.588-94.886 15.599h-90.731c-166.468 0-301.978-135.509-301.978-301.978v-82.5c0-14.138-11.462-25.6-25.6-25.6s-25.6 11.462-25.6 25.6v0 82.5c0 194.765 158.413 353.178 353.178 353.178h90.726c54.579 0 107.861-12.732 158.31-37.786 24.096 7.73 51.815 12.186 80.575 12.186 0.065 0 0.13 0 0.195 0h-0.010c150.733 0 273.408-122.641 273.408-273.408 0-150.733-122.675-273.34-273.408-273.34s-273.374 122.607-273.374 273.34c0.046 97.546 51.162 183.143 128.059 231.508l1.136 0.667zM683.008 448c-122.645-0.175-222.019-99.561-222.174-222.193v-0.015c0.194-122.63 99.573-221.985 222.193-222.14h0.015c122.618 0.194 221.965 99.553 222.14 222.157v0.017c-0.175 122.633-99.541 221.999-222.157 222.174h-0.017zM638.020 138.889l-67.584 67.584c-4.436 4.432-7.18 10.557-7.18 17.323 0 13.523 10.963 24.486 24.486 24.486 6.757 0 12.875-2.737 17.306-7.163v0l50.278-50.278 122.095 121.993c4.433 4.433 10.558 7.175 17.323 7.175 13.53 0 24.498-10.968 24.498-24.498 0-6.765-2.742-12.889-7.175-17.323l-139.435-139.298c-4.429-4.429-10.547-7.168-17.306-7.168s-12.877 2.739-17.306 7.168v0zM396.015 960c119.681-0.155 216.66-97.134 216.815-216.8v-0.015c-0.155-119.681-97.134-216.66-216.8-216.815h-0.015c-119.681 0.155-216.66 97.134-216.815 216.8v0.015c0.155 119.681 97.134 216.66 216.8 216.815h0.015zM396.015 908.8c-91.404-0.155-165.46-74.211-165.615-165.6v-0.015c0.155-91.404 74.211-165.46 165.6-165.615h0.015c91.404 0.155 165.46 74.211 165.615 165.6v0.015c-0.155 91.404-74.211 165.46-165.6 165.615h-0.015z" />
<glyph unicode="&#xe906;" glyph-name="assignedme" horiz-adv-x="1084" d="M943.887 192.422l-153.419 78.788c-14.065 7.395-23.493 21.907-23.493 38.62 0 0.124 0.001 0.248 0.002 0.371v-0.019 55.778c3.674 4.638 7.59 9.879 11.565 15.661 19.115 27.519 35.199 59.179 46.673 92.968l0.792 2.686c22.648 10.662 37.346 33.732 37.346 59.633v66.018c0 15.842-5.783 31.262-16.023 43.249v87.763c0.904 9.035 4.397 63.066-33.611 107.58-33.069 38.671-86.558 58.248-159.142 58.248-72.644 0-126.193-19.576-159.142-58.248-18.096-21.54-30.11-48.742-33.081-78.605l-0.049-0.605c-27.588 14.577-60.055 21.986-96.858 21.986-166.852 0-176.61-146.010-176.73-148.42v-75.475c-9.553-10.019-15.574-23.481-16.021-38.343l-0.002-0.087v-56.983c0-17.83 7.71-34.394 21.082-45.598 13.252-51.32 45.779-90.052 58.488-103.665v-45.237c-0.014-13.554-7.524-25.352-18.608-31.47l-0.185-0.094-106.857-68.849c-39.932-23.015-66.381-65.469-66.381-114.1 0-0.228 0.001-0.455 0.002-0.683v0.035-62.645h963.765v66.68c0 56.681-30.72 107.701-80.113 133.12zM285.094 62.615v-36.924h-192.753v29.636c0 35.78 19.034 68.668 50.477 86.317l106.857 68.789c21.384 12.047 34.696 34.936 34.696 60.055v59.211l-5.12 4.939c-0.422 0.361-43.068 41.743-55.718 98.184l-1.446 6.505-5.481 3.614c-7.157 4.794-11.806 12.849-11.806 21.99 0 0.020 0 0.039 0 0.059v-0.003 56.983c0 5.903 3.915 12.951 10.782 19.336l5.301 4.879v88.727c0.241 4.759 8.614 116.435 144.565 116.435 38.43 0 70.776-9.156 96.376-27.106v-78.065c-10.3-12.047-16.083-27.407-16.083-43.249v-66.018c0-5 0.602-9.939 1.626-14.697 0.422-1.928 1.325-3.614 1.867-5.481 0.904-2.771 1.626-5.662 2.831-8.252l0.060-0.12c4.096-8.674 10.12-16.504 17.649-22.709l0.241-0.904c0.964-3.735 1.988-7.529 3.072-11.204l1.325-4.277 0.723-2.289 1.687-5.301c0.964-2.891 1.988-5.903 3.192-9.156l1.506-3.855c1.325-3.494 2.65-6.807 4.036-10.12l0.964-2.409 0.904-2.048 1.265-2.771 4.698-10.24 0.783-1.626 3.012-6.024c5.369-10.505 10.112-18.801 15.165-26.884l-0.889 1.525 1.385-2.229c3.855-6.204 7.228-11.204 10.059-15.059l1.988-2.831 1.205-1.626v-54.573c0-15.962-8.553-30.6-22.167-38.249l-42.526-23.793-7.409 0.663-3.012-6.505-90.353-50.598c-45.441-26.196-75.538-74.51-75.538-129.855 0-0.301 0.001-0.602 0.003-0.902v0.046zM991.895 25.69h-674.635v36.924c0 42.345 22.528 81.318 58.729 101.617l143.36 80.294c23.913 13.432 38.852 39.153 38.852 67.223v66.259l-3.132 3.855-0.602 0.723-2.65 3.494c-0.838 1.078-1.926 2.549-2.989 4.039l-0.324 0.479v0.060c-2.409 3.433-5.421 7.831-8.794 13.252l-0.181 0.301c-0.915 1.348-2.569 4.022-4.184 6.721l-0.816 1.471-0.361 0.663c-5.573 9.322-11.412 20.612-16.612 32.25l-0.856 2.145-0.783 1.928c-0.074-0.069-0.967 2.057-1.838 4.194l-0.812 2.251-0.964 2.53-2.59 6.807c-1.075 2.667-2.655 7.312-4.113 12.010l-0.525 1.965-0.904 3.012-0.301 0.964c-1.125 3.431-2.577 8.8-3.86 14.234l-0.356 1.789-1.446 6.505-5.421 3.614c-9.052 6.011-14.938 16.162-14.938 27.688 0 0.007 0 0.014 0 0.021v-0.001 65.897c0 9.216 3.855 17.83 10.782 24.335l5.301 4.819v108.725l-0.422 0.361c-0.602 11.866 0.12 48.369 26.082 78.728 26.564 31.202 72.041 46.984 134.927 46.984 62.765 0 108.122-15.661 134.746-46.622 31.322-36.322 26.082-82.763 26.082-83.125l-0.181-104.87 5.301-4.939c6.987-6.445 10.782-15.059 10.782-24.275v-66.018c0-0.037 0-0.080 0-0.123 0-14.558-9.511-26.894-22.658-31.135l-0.232-0.065-7.951-2.47-2.59-8.192c-11.247-35.895-26.716-67.142-46.238-95.371l0.76 1.163c-4.819-6.927-9.457-13.071-13.493-17.83l-3.976-4.638v-68.066c0-29.154 15.782-55.416 41.201-68.488l153.48-78.728c37.331-19.656 62.348-58.188 62.348-102.562 0-0.366-0.002-0.733-0.005-1.098v0.056-33.732z" />
<glyph unicode="&#xe907;" glyph-name="award" horiz-adv-x="836" d="M602.783 516.996c-6.591-2.119-13.653 1.471-15.784 8.004-0.386 1.148-0.609 2.471-0.609 3.845 0 5.525 3.601 10.208 8.584 11.831l0.088 0.025c102.518 33.015 215.158 144.466 215.158 251.139 0 51.647-42.137 93.525-94.102 93.525-5.391 0-10.428-0.553-16.925-1.742-0.687-0.134-1.478-0.21-2.286-0.21-6.1 0-11.182 4.362-12.296 10.136l-0.013 0.079c-0.128 0.671-0.201 1.443-0.201 2.232 0 6.107 4.391 11.187 10.188 12.257l0.077 0.012c6.431 1.327 13.839 2.109 21.421 2.154h0.036c65.795 0 119.161-53.036 119.161-118.443 0-119.384-120.726-238.851-232.495-274.832zM139.805 909.353c6.85-1 11.582-7.321 10.581-14.124-0.939-6.068-6.125-10.659-12.384-10.659-0.651 0-1.291 0.050-1.916 0.146l0.070-0.009c-3.307 0.483-7.698 0.659-13.689 0.659-51.965 0-94.102-41.878-94.102-93.525 0-109.050 115.794-222.62 216.806-251.704 6.638-1.907 10.475-8.828 8.545-15.419-1.579-5.249-6.369-9.008-12.037-9.008-1.247 0-2.451 0.182-3.588 0.521l0.089-0.023c-110.627 31.862-234.884 153.718-234.884 275.633 0 65.407 53.354 118.443 119.172 118.443 7.156 0 12.465-0.212 17.337-0.93zM418.498 309.195c-14.265 0-27.872-1.295-43.173-3.814v32.686h86.334v-32.156c-13.183 2.26-27.471 3.296-43.161 3.296zM191.1 16.767c0 6.874 5.614 12.453 12.535 12.453h429.727c6.909 0 12.523-5.579 12.523-12.453v-58.521c0-6.886-5.614-12.465-12.535-12.465h-429.727c-0.007 0-0.015 0-0.024 0-6.891 0-12.48 5.576-12.5 12.463v58.523zM230.694 4.314c-0.011 0-0.023 0-0.035 0-6.887 0-12.473 5.57-12.5 12.45v223.023c0 6.874 5.603 12.453 12.535 12.453h375.584c6.933 0 12.535-5.579 12.535-12.453v-223.044c0-6.874-5.603-12.441-12.535-12.441h14.524v-33.615h-404.657v33.615h14.548zM243.218 227.346v-198.126h350.549v198.126h-350.549zM306.894 92.495h221.619v71.574h-221.631v-71.574zM339.992 406.522c-39.642 22.281-74.34 59.686-107.461 113.393-4.79 8.357-6.944 12.123-9.628 16.973-2.075 3.465-5.347 9.531-8.497 15.67l-1.331 2.856c-41.266 83.65-68.125 191.712-76.082 309.201 0 3.484-0.188 6.415-0.753 13.183-0.636 7.474-0.847 10.864-0.718 13.512-1.010 7.092-1.608 15.315-1.648 23.67v0.046c-0.046 2.883-0.073 6.286-0.073 9.695 0 0.552 0.001 1.104 0.002 1.655v-0.086c0 13.206 10.393 23.54 23.67 23.54h525.218c13.288 0 23.67-10.334 23.67-23.54 0-3.625-0.141-7.309-0.435-11.864l-0.388-5.626c-0.577-8.004-0.765-11.511-0.765-15.725 0-4.414-0.212-7.804-0.836-15.266-0.565-6.78-0.753-9.71-0.777-14.042-7.933-116.642-34.804-224.691-76.435-309.048-2.566-4.473-4.649-8.298-9.369-17.078-4.838-9.297-8.104-15.149-11.459-20.944l1.631 3.053c-31.932-53.46-68.573-92.372-108.262-113.746-0.911-0.504-1.967-0.916-3.079-1.183l-0.087-0.018c2.225-7.733 3.366-15.925 3.366-22.646 0-19.903-7.709-45.668-25.27-45.668h-111.404c-17.161 0-26.859 27.448-26.859 45.668 0 7.345 1.377 16.207 4.061 24.364zM474.194 431.004h18.597c33.251 19.621 64.924 54.154 93.078 101.282 2.566 4.473 4.649 8.286 9.369 17.067 4.826 9.016 6.991 12.971 9.357 17.031 39.736 80.578 65.83 185.497 73.516 298.219 0 4.414 0.212 7.804 0.847 15.266 0.565 6.78 0.742 9.71 0.742 13.206 0 5.014 0.212 8.898 0.824 17.502 0.212 2.742 0.212 2.742 0.388 5.438 0.212 3.449 0.353 6.273 0.377 8.898h-522.417c0-4.52 0.012-6.768 0.059-9.498 0.118-8.121 0.53-14.524 1.53-22.34 0-3.496 0.188-6.426 0.753-13.206 0.624-7.462 0.836-10.852 0.812-14.43 7.721-113.546 33.804-218.477 73.504-298.961 2.872-5.72 5.885-11.382 9.31-17.549 2.613-4.708 4.708-8.392 9.263-16.313 29.484-47.822 59.91-81.343 93.431-101.623h126.658zM296.583 182.502h246.69c6.921 0 12.535-5.579 12.535-12.465v-96.48c0-6.886-5.614-12.465-12.535-12.465h-246.702c-0.007 0-0.015 0-0.024 0-6.891 0-12.48 5.576-12.5 12.463v96.482c0 6.886 5.614 12.465 12.535 12.465zM486.259 489.078c-2.025-1.451-4.553-2.32-7.284-2.32-4.184 0-7.891 2.040-10.181 5.18l-0.025 0.036c-1.457 2.008-2.331 4.521-2.331 7.239 0 4.17 2.057 7.859 5.212 10.108l0.038 0.026c21.445 15.231 43.961 41.195 62.111 72.704 5.461 8.145 9.887 16.596 15.078 28.601 33.521 68.149 56.002 160.756 63.982 260.284 0 8.427 0.353 12.535 2.236 18.173 1.727 5.002 6.395 8.53 11.887 8.53 1.419 0 2.784-0.236 4.056-0.67l-0.088 0.026c6.568-2.189 10.122-9.24 7.933-15.772-0.765-2.272-0.953-4.484-0.989-11.276-8.263-103.424-31.462-199.033-66.23-269.653-5.508-12.771-10.605-22.516-16.561-31.332-19.397-33.745-44.267-62.44-68.855-79.884zM364.591 399.554c-2.048-6.438-3.59-14.513-3.59-17.396 0-2.684 1.471-9.793 3.46-15.442 0.765-2.142 1.554-3.967 2.272-5.32h103.106c0.541 1.248 1.13 2.872 1.695 4.743 1.671 5.591 2.86 12.829 2.86 16.019 0 2.801-1.507 10.97-3.472 17.655-0.739 2.574-1.477 4.658-2.318 6.688l0.152-0.415h-101.623c-0.824-1.648-1.707-3.896-2.542-6.532zM367.698 407.264l0.129 0.118 0.059 0.094c-0.055-0.080-0.117-0.15-0.187-0.211l-0.001-0.001zM360.071 302.58c15.607 2.825 28.319 4.167 57.379 6.579l1.048 0.035c18.738 0 36.358-2.236 58.415-6.615 49.046-10.829 81.437-33.321 81.437-62.782 0-6.886-5.614-12.453-12.535-12.453h-254.646c-0.011 0-0.023 0-0.035 0-6.887 0-12.473 5.57-12.5 12.45v0.003c0 29.461 32.391 51.942 81.437 62.782zM309.377 252.251h218.23c-9.039 10.146-28.554 19.915-55.873 25.953-20.315 4.037-36.44 6.085-52.2 6.12-28.072-2.319-40.313-3.613-54.26-6.12-27.389-6.085-46.857-15.843-55.896-25.953z" />
<glyph unicode="&#xe908;" glyph-name="calendar" horiz-adv-x="896" d="M308.032 495.36h-93.44v-94.72h93.312v94.72zM494.656 495.36h-93.312v-94.72h93.312v94.72zM681.344 495.36h-93.376v-94.72h93.376v94.72zM774.656 827.264h-46.656v94.784h-93.312v-94.784h-373.376v94.784h-93.312v-94.784h-46.72c-51.776 0-92.8-42.688-92.8-94.848l-0.512-663.68c-0.002-0.21-0.003-0.458-0.003-0.707 0-51.712 41.722-93.68 93.341-94.077h653.35c51.328 0 93.376 42.624 93.376 94.784v663.68c0 52.16-42.048 94.848-93.376 94.848zM774.656 68.736h-653.312v521.472h653.312v-521.472z" />
<glyph unicode="&#xe909;" glyph-name="checkafter" d="M0 960h1024v-1024h-1024v1024zM789.888 653.184l-342.656-342.4-144.96 141.44c-8.736 8.537-20.7 13.805-33.894 13.805-14.226 0-27.021-6.123-35.895-15.877l-0.035-0.039c-8.067-8.853-13.007-20.678-13.007-33.657 0-13.985 5.736-26.63 14.984-35.712l0.008-0.007 179.328-174.912c8.742-8.517 20.7-13.77 33.885-13.77 13.409 0 25.549 5.433 34.339 14.218l376.576 376.256c9.014 9.050 14.587 21.533 14.587 35.318 0 13.201-5.111 25.208-13.462 34.151l0.027-0.029c-8.872 9.532-21.491 15.476-35.497 15.476-13.413 0-25.553-5.451-34.326-14.258l-0.002-0.002z" />
<glyph unicode="&#xe90a;" glyph-name="checkbefore" d="M73.152 9.152h877.696v877.696h-877.696v-877.696zM0 960h1024v-1024h-1024v1024z" />
<glyph unicode="&#xe90b;" glyph-name="circle" d="M512-1.024c-247.063 0-448 202.007-448 449.024 0 247.063 200.937 448 448 448s448-200.937 448-448-200.937-449.024-448-449.024zM512 960c-282.764 0-512-229.236-512-512 0-282.81 229.236-512 512-512 282.81 0 512 229.19 512 512 0 282.764-229.19 512-512 512z" />
<glyph unicode="&#xe90c;" glyph-name="circletick" d="M512 960c282.77 0 512-229.23 512-512s-229.23-512-512-512c-282.77 0-512 229.23-512 512s229.23 512 512 512z" />
<glyph unicode="&#xe90d;" horiz-adv-x="1293" d="M529.866 906.105c19.483 0 32.472-12.342 32.472-30.855v-61.709c0-18.513-12.989-30.855-32.472-30.855s-32.472 12.342-32.472 30.855v61.709c0 18.513 12.989 30.855 32.472 30.855zM332.638 860.564c12.584 1.886 24.414-3.665 31.717-15.683l32.472-53.517c9.728-16.034 4.931-32.822-11.938-42.065-16.869-9.27-34.627-4.851-44.382 11.21l-32.472 53.517c-9.728 16.034-4.931 32.795 11.938 42.038 4.204 2.344 8.488 3.853 12.665 4.473zM742.292 853.423c4.177-0.62 8.461-2.156 12.665-4.446 16.896-9.27 21.666-26.139 11.938-42.2l-32.472-53.383c-9.728-16.034-27.513-20.588-44.382-11.318-16.869 9.243-21.666 26.139-11.911 42.173l32.445 53.383c7.303 12.045 19.133 17.677 31.717 15.791zM196.177 732.78c7.923 1.347 16.465-0.539 24.495-5.794l53.383-35.059c16.034-10.536 19.321-27.81 8.246-43.035s-29.13-18.243-45.137-7.734l-53.41 35.085c-16.007 10.536-19.321 27.675-8.246 42.9 5.551 7.626 12.773 12.261 20.669 13.635zM529.866 723.725c0.386 0.002 0.842 0.004 1.298 0.004 49.385 0 95.022-16.044 131.984-43.204l-0.62 0.435c32.199 21.18 71.671 33.795 114.089 33.819h0.007c107.574 0 193.832-78.093 217.384-176.317 103.128-22.663 184.778-105.93 191.623-216.845v-1.805c0.054-121.829-105.472-222.127-233.688-222.127h-571.473c-95.96 0-175.293 76.665-175.293 172.733 0 74.375 49.987 131.746 116.682 154.759-10.159 23.256-19.267 49.853-19.267 82.567 0 120.643 100.325 215.983 227.274 215.983zM529.866 662.016c-93.831 0-162.331-65.105-162.331-154.274 0-12.126 4.581-21.827 8.488-31.933 20.37 37.055 51.244 66.176 88.596 83.838l1.192 0.507c24.307 13.393 52.008 21.585 83.591 21.585 6.090 0 16.6-3.503 25.088-4.446 0.889 1.832 2.129 3.288 3.045 5.066 8.901 19.305 19.325 35.942 31.557 51.056l-0.352-0.449c-22.771 14.902-46.7 29.049-78.875 29.049zM776.65 653.123c-33.415 0-64.512-10.644-90.543-27.756-1.725-2.237-3.773-4.285-6.090-6.009-24.549-18.675-42.873-39.963-54.649-68.339-1.994-5.255-4.123-10.456-5.47-15.899-2.21-9.243-8.758-16.977-17.785-21.046-9-4.042-19.456-3.934-28.376 0.269-5.228 2.506-11.345 2.91-24.333 2.91-25.196 0-48.613-5.875-68.877-16.384-31.798-19.133-55.377-50.984-66.452-87.39-0.404-1.967-1.213-3.773-1.536-5.794-2.425-15.037-16.061-26.139-32.067-26.139-59.904 0-110.349-46.727-110.349-111.131s50.445-111.023 110.349-111.023h571.473c92.241 0 167.909 72.138 168.421 159.717-6.198 90.705-72.219 157.373-153.223 167.667-14.525 1.832-25.95 12.692-27.891 26.516-10.86 77.339-82.513 139.803-162.6 139.803zM140.261 535.795h64.943c19.456 0 32.445-12.342 32.445-30.855s-12.989-30.855-32.472-30.855h-64.943c-19.456 0-32.445 12.342-32.445 30.855s12.989 30.855 32.472 30.855z" />
<glyph unicode="&#xe90e;" horiz-adv-x="1293" d="M529.866 906.105c19.483 0 32.472-12.342 32.472-30.855v-61.709c0-18.513-12.989-30.855-32.472-30.855s-32.472 12.342-32.472 30.855v61.709c0 18.513 12.989 30.855 32.472 30.855zM332.638 860.564c12.584 1.886 24.414-3.665 31.717-15.683l32.472-53.517c9.728-16.034 4.931-32.822-11.938-42.065-16.869-9.27-34.627-4.851-44.382 11.21l-32.472 53.517c-9.728 16.034-4.931 32.795 11.938 42.038 4.204 2.344 8.488 3.853 12.665 4.473zM742.292 853.423c4.177-0.62 8.461-2.156 12.665-4.446 16.896-9.27 21.666-26.139 11.938-42.2l-32.472-53.383c-9.728-16.034-27.513-20.588-44.382-11.318-16.869 9.243-21.666 26.139-11.911 42.173l32.445 53.383c7.303 12.045 19.133 17.677 31.717 15.791zM196.177 732.78c7.923 1.347 16.465-0.539 24.495-5.794l53.383-35.059c16.034-10.536 19.321-27.81 8.246-43.035s-29.13-18.243-45.137-7.734l-53.41 35.085c-16.007 10.536-19.321 27.675-8.246 42.9 5.551 7.626 12.773 12.261 20.669 13.635zM529.866 723.725c0.386 0.002 0.842 0.004 1.298 0.004 49.385 0 95.022-16.044 131.984-43.204l-0.62 0.435c32.199 21.18 71.671 33.795 114.089 33.819h0.007c107.574 0 193.832-78.093 217.384-176.317 103.128-22.663 184.778-105.93 191.623-216.845v-1.805c0.054-121.829-105.472-222.127-233.688-222.127h-571.473c-95.96 0-175.293 76.665-175.293 172.733 0 74.375 49.987 131.746 116.682 154.759-10.159 23.256-19.267 49.853-19.267 82.567 0 120.643 100.325 215.983 227.274 215.983zM529.866 662.016c-93.831 0-162.331-65.105-162.331-154.274 0-12.126 4.581-21.827 8.488-31.933 20.37 37.055 51.244 66.176 88.596 83.838l1.192 0.507c24.307 13.393 52.008 21.585 83.591 21.585 6.090 0 16.6-3.503 25.088-4.446 0.889 1.832 2.129 3.288 3.045 5.066 8.901 19.305 19.325 35.942 31.557 51.056l-0.352-0.449c-22.771 14.902-46.7 29.049-78.875 29.049zM776.65 653.123c-33.415 0-64.512-10.644-90.543-27.756-1.725-2.237-3.773-4.285-6.090-6.009-24.549-18.675-42.873-39.963-54.649-68.339-1.994-5.255-4.123-10.456-5.47-15.899-2.21-9.243-8.758-16.977-17.785-21.046-9-4.042-19.456-3.934-28.376 0.269-5.228 2.506-11.345 2.91-24.333 2.91-25.196 0-48.613-5.875-68.877-16.384-31.798-19.133-55.377-50.984-66.452-87.39-0.404-1.967-1.213-3.773-1.536-5.794-2.425-15.037-16.061-26.139-32.067-26.139-59.904 0-110.349-46.727-110.349-111.131s50.445-111.023 110.349-111.023h571.473c92.241 0 167.909 72.138 168.421 159.717-6.198 90.705-72.219 157.373-153.223 167.667-14.525 1.832-25.95 12.692-27.891 26.516-10.86 77.339-82.513 139.803-162.6 139.803zM140.261 535.795h64.943c19.456 0 32.445-12.342 32.445-30.855s-12.989-30.855-32.472-30.855h-64.943c-19.456 0-32.445 12.342-32.445 30.855s12.989 30.855 32.472 30.855z" />
<glyph unicode="&#xe90f;" glyph-name="coffee" horiz-adv-x="922" d="M900.164 504.883h-657.254c-15.718 0-35.721-12.8-35.721-28.433v-99.567h-64.307c-78.592 0-142.882-64-142.882-142.217s64.29-142.217 142.882-142.217h104.311c48.572-92.45 145.749-156.45 258.611-156.45h131.465c161.451 0 284.331 129.417 284.331 290.133v250.317c-1.434 15.633-7.151 28.433-21.436 28.433zM142.882 149.333c-47.155 0-85.726 38.4-85.726 85.333s38.571 85.333 85.726 85.333h64.307v-93.867c0-27.017 11.435-52.617 17.135-76.8h-81.442zM863.010 226.133c0-128-98.577-233.25-227.174-233.25h-131.465c-128.563 0-241.459 105.25-241.459 233.25v221.867h600.098v-221.867zM585.83 576c0 35.55-10.001 52.617-24.303 73.95-15.701 24.183-32.853 51.2-32.853 103.834 0 52.617 17.118 79.633 32.853 103.817 14.302 21.333 24.303 38.4 24.303 73.95 0.547 15.357 13.129 27.599 28.57 27.599s28.022-12.242 28.568-27.549l0.001-0.050c0-52.617-17.135-79.633-32.853-103.817-14.285-21.333-24.286-36.983-24.286-73.95 0-36.983 11.435-52.634 24.286-73.967 15.701-24.166 32.853-51.2 32.853-103.817-0.547-15.357-13.129-27.599-28.57-27.599s-28.022 12.242-28.568 27.549l-0.001 0.050zM762.999 576c0 35.55-8.567 52.617-24.286 73.95-15.718 24.183-32.87 51.2-32.87 103.834 0 52.617 17.152 79.633 32.87 103.817 14.285 21.333 24.286 38.4 24.286 73.95 0.39 15.485 13.036 27.888 28.578 27.888s28.188-12.404 28.577-27.852l0.001-0.036c0-52.617-17.152-79.633-32.87-103.817-14.285-21.333-24.286-38.4-24.286-73.95 0-35.567 10.001-52.634 24.286-73.967 15.718-24.166 32.87-51.2 32.87-103.817-0.39-15.485-13.036-27.888-28.578-27.888s-28.188 12.404-28.577 27.852l-0.001 0.036zM405.794 576c0 35.55-8.585 52.617-24.303 73.95-15.701 24.183-32.853 51.2-32.853 103.834 0 52.617 17.152 79.633 32.853 103.817 14.302 21.333 24.303 38.4 24.303 73.95 0.39 15.485 13.036 27.888 28.578 27.888s28.188-12.404 28.577-27.852l0.001-0.036c0-52.617-17.152-79.633-32.87-103.817-14.285-21.333-24.286-38.4-24.286-73.95 0-35.567 10.001-52.634 24.286-73.967 15.701-24.166 32.87-51.2 32.87-103.817 0-15.788-12.799-28.587-28.587-28.587s-28.587 12.799-28.587 28.587v0z" />
<glyph unicode="&#xe910;" glyph-name="cross" d="M993.28 929.28c-40.96 40.96-106.496 40.96-143.36 0l-339.968-339.968-335.872 335.872c-40.96 40.96-106.496 40.96-143.36 0-40.96-40.96-40.96-106.496 0-143.36l335.872-335.872-335.872-335.872c-40.96-40.96-40.96-106.496 0-143.36 40.96-40.96 106.496-40.96 143.36 0l335.872 335.872 335.872-335.872c20.48-20.48 45.056-28.672 73.728-28.672s53.248 8.192 73.728 28.672c40.96 40.96 40.96 106.496 0 143.36l-339.968 335.872 335.872 335.872c40.96 40.96 40.96 106.496 4.096 147.456z" />
<glyph unicode="&#xe911;" horiz-adv-x="1043" d="M512 770.37h18.963c178.040 0 322.37-144.33 322.37-322.37s-144.33-322.37-322.37-322.37h-18.963c-178.040 0-322.37 144.33-322.37 322.37s144.33 322.37 322.37 322.37z" />
<glyph unicode="&#xe912;" horiz-adv-x="1043" d="M512 770.37h18.963c178.040 0 322.37-144.33 322.37-322.37s-144.33-322.37-322.37-322.37h-18.963c-178.040 0-322.37 144.33-322.37 322.37s144.33 322.37 322.37 322.37z" />
<glyph unicode="&#xe913;" horiz-adv-x="1043" d="M625.455 549.016c-8.837 8.59-23.002 8.59-30.967 0l-73.444-71.358-72.571 70.485c-8.856 8.609-23.002 8.609-30.967 0-8.856-8.59-8.856-22.338 0-30.075l72.552-70.504-72.552-70.485c-8.856-8.59-8.856-22.357 0-30.094 8.837-8.59 23.002-8.59 30.967 0l72.571 70.504 72.552-70.504c4.437-4.286 9.747-6.011 15.929-6.011 6.201 0 11.511 1.707 15.929 6.011 8.856 8.609 8.856 22.357 0 30.094l-73.444 70.485 72.571 70.504c4.16 4.035 6.743 9.676 6.743 15.921 0 5.805-2.232 11.090-5.884 15.042l0.014-0.015z" />
<glyph unicode="&#xe914;" glyph-name="dashboard" d="M68.267 823.467v-199.543c0-37.703 30.564-68.267 68.267-68.267v0h199.543c37.703 0 68.267 30.564 68.267 68.267v0 199.543c0 37.703-30.564 68.267-68.267 68.267v0h-199.543c-37.703 0-68.267-30.564-68.267-68.267v0zM68.267 960h336.077c37.703 0 68.267-30.564 68.267-68.267v0-336.077c0-37.703-30.564-68.267-68.267-68.267v0h-336.077c-37.703 0-68.267 30.564-68.267 68.267v0 336.077c0 37.703 30.564 68.267 68.267 68.267v0zM619.657 823.467v-199.543c0-37.703 30.564-68.267 68.267-68.267v0h199.543c37.703 0 68.267 30.564 68.267 68.267v0 199.543c0 37.703-30.564 68.267-68.267 68.267v0h-199.543c-37.703 0-68.267-30.564-68.267-68.267v0zM619.657 960h336.077c37.703 0 68.267-30.564 68.267-68.267v0-336.077c0-37.703-30.564-68.267-68.267-68.267v0h-336.077c-37.703 0-68.267 30.564-68.267 68.267v0 336.077c0 37.703 30.564 68.267 68.267 68.267v0zM68.267 272.077v-199.543c0-37.703 30.564-68.267 68.267-68.267v0h199.543c37.703 0 68.267 30.564 68.267 68.267v0 199.543c0 37.703-30.564 68.267-68.267 68.267v0h-199.543c-37.703 0-68.267-30.564-68.267-68.267v0zM68.267 408.61h336.077c37.703 0 68.267-30.564 68.267-68.267v0-336.077c0-37.703-30.564-68.267-68.267-68.267v0h-336.077c-37.703 0-68.267 30.564-68.267 68.267v0 336.077c0 37.703 30.564 68.267 68.267 68.267v0zM619.657 272.077v-199.543c0-37.703 30.564-68.267 68.267-68.267v0h199.543c37.703 0 68.267 30.564 68.267 68.267v0 199.543c0 37.703-30.564 68.267-68.267 68.267v0h-199.543c-37.703 0-68.267-30.564-68.267-68.267v0zM619.657 408.61h336.077c37.703 0 68.267-30.564 68.267-68.267v0-336.077c0-37.703-30.564-68.267-68.267-68.267v0h-336.077c-37.703 0-68.267 30.564-68.267 68.267v0 336.077c0 37.703 30.564 68.267 68.267 68.267v0z" />
<glyph unicode="&#xe915;" glyph-name="down" horiz-adv-x="1664" d="M1452.288 928.896c22.309 19.357 51.633 31.153 83.712 31.153 70.719 0 128.049-57.329 128.049-128.049 0-38.64-17.115-73.283-44.178-96.761l-0.159-0.135-755.328-652.672c-22.298-19.34-51.604-31.126-83.663-31.126-35.364 0-67.378 14.341-90.545 37.525l-652.801 652.673c-23.138 23.17-37.447 55.162-37.447 90.496 0 70.732 57.339 128.071 128.071 128.071 35.398 0 67.441-14.361 90.623-37.574l568.577-568.449 665.216 574.72z" />
<glyph unicode="&#xe916;" glyph-name="downborder" horiz-adv-x="1229" d="M256.205 780.083l315.392-552.96 315.597 552.96h-630.989zM1055.642 960c78.029 0 110.080-54.989 71.373-122.778l-485.274-850.33c-38.707-67.891-101.376-67.891-140.083 0l-485.274 850.227c-38.605 67.891-6.758 122.88 71.373 122.88h967.885z" />
<glyph unicode="&#xe917;" glyph-name="downfill" horiz-adv-x="2048" d="M139.878 820.122l826.163-826.163c14.828-14.844 35.321-24.026 57.958-24.026s43.131 9.182 57.958 24.025l826.164 826.164c14.844 14.828 24.026 35.321 24.026 57.958 0 45.243-36.677 81.92-81.92 81.92-0.023 0-0.045 0-0.068 0h-1652.323c-0.019 0-0.042 0-0.064 0-45.243 0-81.92-36.677-81.92-81.92 0-22.638 9.182-43.131 24.025-57.958l0.001-0.001z" />
<glyph unicode="&#xe918;" glyph-name="error" horiz-adv-x="1170" d="M1161.655 4.754l-539.648 932.133c-7.607 13.239-21.65 23.113-36.864 23.113-15.943-0.628-29.618-9.755-36.677-22.953l-0.114-0.233-539.648-932.059c-7.314-13.385-12.581-34.67-4.974-47.762 7.42-12.682 20.974-21.065 36.486-21.065 0.030 0 0.060 0 0.090 0h1089.531c15.141 0 28.965 8.046 36.571 21.065 7.826 13.093 2.56 34.67-4.754 47.762zM668.745 64h-167.131v128h167.131v-128zM668.745 277.358h-167.131v384h167.131v-384z" />
<glyph unicode="&#xe919;" glyph-name="filter" horiz-adv-x="1161" d="M399.36 402.739l-360.789 426.667c-9.464 11.162-15.219 25.73-15.219 41.643 0 35.641 28.872 64.539 64.504 64.58h940.173c0.013 0 0.028 0 0.043 0 35.667 0 64.58-28.914 64.58-64.58 0-15.975-5.8-30.595-15.41-41.87l0.075 0.090-360.789-426.667v-377.719c0-0.017 0-0.037 0-0.057 0-35.667-28.914-64.58-64.58-64.58-10.526 0-20.464 2.518-29.244 6.985l0.367-0.169-188.006 94.071c-21.334 10.837-35.699 32.617-35.703 57.753v283.854zM1044.412 878.694c-2.932 6.218-9.148 10.445-16.352 10.445-0.011 0-0.023 0-0.034 0h-940.167c-0.018 0-0.038 0-0.059 0-9.953 0-18.022-8.069-18.022-18.022 0-4.465 1.624-8.55 4.312-11.699l-0.021 0.025 371.849-439.637v-300.851c0-6.827 3.823-13.107 9.967-16.179l188.006-94.003c2.365-1.22 5.161-1.935 8.124-1.935 9.953 0 18.022 8.069 18.022 18.022 0 0.032 0 0.064 0 0.097v-0.005 394.786l5.461 6.554 366.319 433.152c2.658 3.12 4.274 7.198 4.274 11.653 0 2.758-0.619 5.371-1.727 7.708l0.047-0.109z" />
<glyph unicode="&#xe91a;" glyph-name="flag" horiz-adv-x="853" d="M853.333 704l-744.676-249.856v-518.144h-108.658v1024h108.658z" />
<glyph unicode="&#xe91b;" d="M830.792 448c0-176.064-142.728-318.792-318.792-318.792s-318.792 142.728-318.792 318.792c0 176.064 142.728 318.792 318.792 318.792s318.792-142.728 318.792-318.792z" />
<glyph unicode="&#xe91c;" d="M357.434 409.358c-21.341 0-38.642 17.3-38.642 38.642s17.3 38.642 38.642 38.642c21.341 0 38.642-17.3 38.642-38.642s-17.3-38.642-38.642-38.642zM512 409.358c-21.341 0-38.642 17.3-38.642 38.642s17.3 38.642 38.642 38.642c21.341 0 38.642-17.3 38.642-38.642s-17.3-38.642-38.642-38.642zM666.566 409.358c-21.341 0-38.642 17.3-38.642 38.642s17.3 38.642 38.642 38.642c21.341 0 38.642-17.3 38.642-38.642s-17.3-38.642-38.642-38.642z" />
<glyph unicode="&#xe91d;" glyph-name="horizontaldots" horiz-adv-x="5120" d="M1024 448c0-282.77-229.23-512-512-512s-512 229.23-512 512c0 282.77 229.23 512 512 512s512-229.23 512-512zM3072 448c0-282.77-229.23-512-512-512s-512 229.23-512 512c0 282.77 229.23 512 512 512s512-229.23 512-512zM5120 448c0-282.77-229.23-512-512-512s-512 229.23-512 512c0 282.77 229.23 512 512 512s512-229.23 512-512z" />
<glyph unicode="&#xe91e;" glyph-name="left" horiz-adv-x="658" d="M570.953 835.438c10.33 12.518 16.595 28.723 16.595 46.393 0 40.396-32.747 73.143-73.143 73.143-21.42 0-40.689-9.207-54.066-23.88l-0.052-0.058-373.029-431.543c-11.072-12.748-17.82-29.509-17.82-47.846 0-20.225 8.209-38.532 21.476-51.773l373.030-372.956c13.237-13.228 31.519-21.409 51.712-21.409 40.404 0 73.158 32.754 73.158 73.158 0 20.211-8.196 38.508-21.445 51.748l-324.901 324.828 328.485 380.197z" />
<glyph unicode="&#xe91f;" glyph-name="leftdouble" d="M144.128 468.907l377.173-418.987c6.809-7.538 10.975-17.576 10.975-28.587 0-23.593-19.126-42.719-42.719-42.719-12.582 0-23.893 5.439-31.711 14.095l-0.033 0.037-404.224 449.28c-6.797 7.527-10.955 17.551-10.955 28.545 0 11.779 4.773 22.444 12.491 30.164l404.224 404.139c7.723 7.713 18.387 12.482 30.165 12.482 23.577 0 42.69-19.113 42.69-42.69 0-11.799-4.787-22.48-12.525-30.208v0l-375.467-375.552zM593.237 468.907l377.173-418.987c6.809-7.538 10.975-17.576 10.975-28.587 0-23.593-19.126-42.719-42.719-42.719-12.582 0-23.893 5.439-31.711 14.095l-0.033 0.037-404.139 449.28c-6.797 7.527-10.955 17.551-10.955 28.545 0 11.779 4.773 22.444 12.491 30.164l404.139 404.139c7.731 7.731 18.411 12.513 30.208 12.513 23.594 0 42.721-19.127 42.721-42.721 0-11.797-4.782-22.477-12.513-30.208l-375.637-375.552z" />
<glyph unicode="&#xe920;" glyph-name="logo" horiz-adv-x="4762" d="M153.037 575.718h-136.243c-0.023 0-0.050 0-0.077 0-9.205 0-16.673-7.441-16.717-16.636v-469.61c0-9.165 7.526-16.64 16.794-16.64h135.578c144.461 0 251.136 91.981 251.136 250.624s-105.856 251.264-250.317 251.264l-0.154 0.998zM148.838 165.299h-50.406v319.821h50.406c82.97 0 151.168-51.712 151.168-160.64s-69.376-160.154-152.346-160.154l1.178 1.024zM724.838 197.555c35.917 0 65.024-28.8 65.024-64.333 0-35.558-29.107-64.358-65.024-64.358-35.891 0-65.024 28.8-65.024 64.358-0.001 0.131-0.002 0.286-0.002 0.441 0 17.992 7.365 34.263 19.245 45.964l0.008 0.008c11.884 11.714 28.212 18.948 46.229 18.948 0.254 0 0.507-0.001 0.76-0.004h-0.039l-1.178-1.024zM1145.958 279.885c65.178 16.538 110.054 75.597 108.032 142.182 0 87.117-62.822 154.317-161.613 154.317h-182.554c-0.030 0-0.067 0-0.103 0-9.206 0-16.673-7.441-16.717-16.636v-469.61c0-9.165 7.526-16.64 16.819-16.64h67.174c9.293 0 16.794 7.475 16.794 16.64v177.126h51.405l91.392-177.101c4.787-9.293 14.029-15.565 24.525-16.64h76.928c8.909 0 12.595 7.347 8.064 16.64l-100.096 189.747zM1073.741 352.051h-80.128v139.52h80.128c50.381 0 79.283-27.597 79.283-70.016 0-42.394-29.235-69.325-79.283-69.325v-0.179zM658.15 425.882c7.424-0.051 14.822-0.512 22.17-1.331v-94.771c-8.445 1.791-18.147 2.817-28.089 2.817-0.16 0-0.32 0-0.48-0.001h0.025c-48.563 0-90.88-23.45-90.88-98.278v-143.36c0-9.165-7.526-16.614-16.794-16.614h-62.669c-0.023 0-0.050 0-0.077 0-9.205 0-16.673 7.441-16.717 16.636v315.959c0.595 8.747 7.835 15.616 16.681 15.616 0.040 0 0.079 0 0.119 0h60.794c8.522-0.824 15.13-7.95 15.13-16.618 0-0.008 0-0.015 0-0.023v0.001-35.738c21.504 46.080 70.221 54.374 100.787 54.374v1.331zM2885.76 405.76l-206.797-454.451c-5.018-8.393-13.673-14.165-23.732-15.145l-0.127-0.010h-68.352c-8.909 0-12.288 7.168-8.064 16.64l75.597 165.12-142.618 288.179c-5.043 8.806-1.869 16.64 7.040 16.64h73.574c10.65-1.229 20.070-7.424 25.37-16.64l86.349-187.725 79.616 187.904c5.248 9.19 14.592 15.36 25.19 16.64h68.864c9.088-0.691 11.597-8.192 7.245-16.64l0.845-0.512zM1449.011 432.384c-90.035 0-172.851-72.192-172.851-182.938 0-117.402 84.992-186.061 181.402-186.061 80.64 0 134.4 43.546 155.392 98.099 0.485 1.254 0.765 2.706 0.765 4.223 0 5.26-3.376 9.732-8.079 11.368l-54.996 16.666c-1.042 0.252-2.239 0.397-3.469 0.397-5.671 0-10.624-3.073-13.285-7.645l-0.039-0.073c-13.088-25.413-39.142-42.493-69.185-42.493-2.203 0-4.384 0.092-6.541 0.272l0.282-0.019c-46.336-1.715-85.632 33.382-88.678 79.155h236.672c9.293 0 16.794 7.45 16.794 16.64v13.312c0 111.744-64.998 180.403-173.67 180.403l-0.512-1.331zM1372.416 288.691c3.533 39.962 38.118 70.144 78.592 68.685 54.451 0 77.286-33.28 78.618-68.685h-157.21zM2367.693 388.48c-10.419 18.278-38.963 42.394-98.944 42.394-99.43 0-167.962-79.974-167.962-181.914 0-105.421 71.373-182.912 171.52-182.912 1.99-0.128 4.314-0.201 6.656-0.201 38.147 0 71.782 19.319 91.655 48.706l0.249 0.39c0.23-11.52 1.126-23.040 2.714-34.432 1.483-3.434 4.826-5.801 8.725-5.837h62.162c9.267 0 16.794 7.45 16.794 16.64v479.053c-0.044 9.199-7.511 16.64-16.717 16.64-0.027 0-0.054 0-0.081 0h-61.308c-0.023 0-0.050 0-0.077 0-9.205 0-16.673-7.441-16.717-16.636v-182.097l1.331 0.179zM2283.725 150.016c-50.432 0-87.373 36.736-87.373 99.763s38.656 97.613 87.347 97.613c48.717 0 86.528-34.739 86.528-96.947s-37.965-99.763-86.528-99.763v-0.666zM1945.37 389.12c-10.419 18.304-38.963 42.419-98.944 42.419-99.456 0-167.987-79.974-167.987-181.914 0-105.421 71.398-182.912 171.52-182.912 2.004-0.13 4.346-0.203 6.705-0.203 38.148 0 71.784 19.32 91.657 48.709l0.249 0.39c0.179-11.52 1.075-23.040 2.688-34.432 1.48-3.426 4.81-5.79 8.698-5.837h63.699c9.267 0 16.794 7.45 16.794 16.64v478.387c-0.044 9.199-7.511 16.64-16.717 16.64-0.027 0-0.054 0-0.081 0h-61.308c-0.030 0-0.067 0-0.103 0-9.206 0-16.673-7.441-16.717-16.636v-182.097l-0.154 0.845zM1861.376 150.682c-50.406 0-87.347 36.736-87.347 99.763s38.656 97.613 87.347 97.613c48.717 0 86.528-34.739 86.528-96.947s-37.99-99.763-86.528-99.763v-0.666zM3032.371 510.515c-2.842-6.144-53.069-104.755-53.069-104.755-1.702-3.013-4.783-5.072-8.364-5.323l-0.033-0.002h-31.744c-0.008 0-0.017 0-0.026 0-3.229 0-5.848 2.61-5.862 5.835v0.001c-0.028 0.223-0.044 0.481-0.044 0.742s0.016 0.52 0.047 0.773l-0.003-0.030 31.744 70.349c-25.175 6.432-43.491 28.91-43.491 55.665 0 3.351 0.287 6.635 0.839 9.828l-0.049-0.341c4.962 27.332 28.579 47.786 56.973 47.786 1.78 0 3.541-0.080 5.28-0.238l-0.224 0.016c29.722-2.416 52.944-27.071 53.069-57.178v-0.013c0.205-7.987-1.536-15.923-5.043-23.117zM4028.851 287.36c0-0.007 0-0.016 0-0.025 0-21.446-13.101-39.833-31.736-47.593l-0.341-0.126c-5.911-2.505-12.786-3.96-20-3.96-14.355 0-27.364 5.763-36.838 15.102l0.006-0.006c-9.416 9.286-15.249 22.184-15.249 36.444 0 7.148 1.465 13.953 4.112 20.132l-0.127-0.333c8.135 18.817 26.536 31.745 47.956 31.745 0.105 0 0.211 0 0.316-0.001h-0.016c28.621-0.077 51.814-23.040 51.917-51.379zM4089.318-34.406v700.774c-2.509 104.064-64.973 197.504-160.768 240.435-29.018 12.992-62.724 21.476-98.146 23.591l-0.798 0.038c-171.674 8.96-304.384-91.648-339.814-227.328-5.809-22.943-9.143-49.283-9.143-76.4 0-71.245 23.012-137.115 62.008-190.582l-0.641 0.922c70.554-102.426 360.499-374.298 500.608-495.36 4.864-3.584 10.752-5.555 16.794-5.658 16.154 0 29.286 12.928 29.389 28.928l0.512 0.666zM4306.176 327.782c71.347 0 129.178-57.267 129.178-127.872 0-70.656-57.856-127.898-129.178-127.898-71.347 0-129.178 57.267-129.178 127.898 0 70.605 57.856 127.872 129.178 127.872zM4176.998 37.606c0.015 0 0.033 0 0.051 0 24.406 0 44.2-19.741 44.288-44.126v-0.008c-0.16-24.338-19.926-44.007-44.287-44.007-0.054 0-0.109 0-0.163 0h0.008c-0.084-0.001-0.184-0.001-0.283-0.001-24.325 0-44.069 19.611-44.286 43.884v0.021c-0.051 11.75 4.634 23.040 13.030 31.334 8.077 7.976 19.182 12.903 31.437 12.903 0.072 0 0.144 0 0.216-0.001h-0.011zM4552.090 638.72c69.453 0.077 132.096-41.293 158.72-104.781 8.287-19.25 13.105-41.659 13.105-65.193 0-46.977-19.201-89.469-50.182-120.057l-0.018-0.017c-31.215-30.816-74.127-49.85-121.484-49.85-23.667 0-46.224 4.754-66.767 13.358l1.141-0.424c-62.572 25.895-105.829 86.388-106.010 157.007v0.023c0 0.009 0 0.020 0 0.030 0 46.992 19.19 89.502 50.16 120.121l0.016 0.015c31.122 30.763 73.926 49.766 121.169 49.766 0.062 0 0.123 0 0.185 0h-0.010zM4671.539 847.923c49.715 0 90.035-39.91 90.035-89.139s-40.32-89.114-90.035-89.114c-49.741 0-90.035 39.885-90.035 89.114s40.294 89.139 90.035 89.139zM4327.014 633.754c-91.008 0.077-164.685 73.165-164.608 163.226 0.051 90.086 73.83 163.072 164.813 163.021 91.008-0.026 164.736-73.062 164.736-163.123-0.036-45.155-18.506-85.988-48.29-115.388l-0.017-0.017c-29.892-29.499-70.978-47.719-116.32-47.719-0.11 0-0.22 0-0.33 0h0.017zM4333.389 490.061c0-53.53-43.853-96.947-97.92-96.947-54.093 0-97.946 43.418-97.946 96.947 0 53.555 43.853 96.947 97.946 96.947 54.067 0 97.92-43.392 97.92-96.947zM3174.323 284.211c69.376-14.131 104.32-55.885 104.32-106.931 0-56.525-44.365-114.56-136.576-114.56s-132.352 52.378-143.462 91.955c-0.158 0.859-0.248 1.849-0.248 2.859 0 7.286 4.69 13.477 11.216 15.718l0.117 0.035 59.802 13.133c3.84 0.563 7.526-1.792 8.576-5.478 5.819-26.687 29.244-46.377 57.268-46.377 2.073 0 4.121 0.108 6.139 0.318l-0.252-0.021c31.411 0 46.541 16.64 46.541 34.765 0 15.616-10.752 28.288-37.811 33.28l-46.515 10.624c-67.2 14.797-98.611 55.219-98.611 103.936 0 62.208 55.757 113.92 131.533 113.92 87.526 0 124.134-48.077 134.4-85.325 0.124-0.762 0.195-1.64 0.195-2.535 0-7.276-4.677-13.459-11.188-15.708l-0.117-0.035-50.381-11.494c-1.113-0.301-2.391-0.474-3.71-0.474-2.81 0-5.436 0.786-7.67 2.149l0.065-0.037c-3.327 2.023-5.742 5.265-6.637 9.093l-0.019 0.098c-8.195 19.777-27.344 33.436-49.684 33.436-1.552 0-3.088-0.066-4.607-0.195l0.198 0.014c-25.037 0-45.030-14.797-45.030-34.586 1.024-17.101 14.976-30.618 32.256-31.258l50.381-10.65-0.512 0.333z" />
<glyph unicode="&#xe921;" glyph-name="message" d="M38.4 827.238c0 0.046 0 0.1 0 0.154 0 52.186 42.204 94.516 94.342 94.719h758.496c52.35-0.116 94.757-42.523 94.874-94.862v-568.843c0-52.224-42.65-94.874-94.822-94.874h-663.706l-189.594-189.594 0.461 853.299zM227.533 353.178h568.934v94.822h-568.934v-94.822zM227.533 495.411h568.934v94.822h-568.934v-94.822zM227.533 637.645h568.934v94.822h-568.934v-94.822z" />
<glyph unicode="&#xe922;" glyph-name="mobilemenu" horiz-adv-x="1463" d="M691.566 807.131c-35.079 2.078-62.74 31.034-62.74 66.45s27.661 64.372 62.557 66.442l0.182 0.009h638.318c35.393-1.712 63.44-30.824 63.44-66.487s-28.048-64.775-63.288-66.481l-0.153-0.006h-638.318zM691.566 381.44c-36.76 0-66.56 29.8-66.56 66.56s29.8 66.56 66.56 66.56h638.318c36.76 0 66.56-29.8 66.56-66.56s-29.8-66.56-66.56-66.56h-638.318zM691.566-44.032c-0.931-0.047-2.022-0.073-3.12-0.073-36.76 0-66.56 29.8-66.56 66.56s29.8 66.56 66.56 66.56c1.097 0 2.188-0.027 3.272-0.079l-0.153 0.006h638.318c35.393-1.712 63.44-30.824 63.44-66.487s-28.048-64.775-63.288-66.481l-0.153-0.006h-638.318zM106.423 807.058c-35.393 1.712-63.44 30.824-63.44 66.487s28.048 64.775 63.288 66.481l0.153 0.006h279.259c0.931 0.047 2.022 0.073 3.12 0.073 36.76 0 66.56-29.8 66.56-66.56s-29.8-66.56-66.56-66.56c-1.097 0-2.188 0.027-3.272 0.079l0.153-0.006h-279.259zM106.423 381.513c-35.393 1.712-63.44 30.824-63.44 66.487s28.048 64.775 63.288 66.481l0.153 0.006h279.259c0.931 0.047 2.022 0.073 3.12 0.073 36.76 0 66.56-29.8 66.56-66.56s-29.8-66.56-66.56-66.56c-1.097 0-2.188 0.027-3.272 0.079l0.153-0.006h-279.259zM106.423-44.032c-0.931-0.047-2.022-0.073-3.12-0.073-36.76 0-66.56 29.8-66.56 66.56s29.8 66.56 66.56 66.56c1.097 0 2.188-0.027 3.272-0.079l-0.153 0.006h279.259c35.393-1.712 63.44-30.824 63.44-66.487s-28.048-64.775-63.288-66.481l-0.153-0.006h-279.259z" />
<glyph unicode="&#xe923;" glyph-name="notification" horiz-adv-x="986" d="M723.058 125.63c-0.91-134.94-61.137-189.63-201.88-189.63h-60.909c-137.975 0-177.873 50.29-178.479 189.63h-168.012c-62.838 0-113.778 50.94-113.778 113.778s50.94 113.778 113.778 113.778v0h37.926v250.046c0 197.101 142.981 356.769 325.442 356.769h20.783c184.055 0 336.441-161.564 336.441-356.769v-250.046h37.926c62.838 0 113.778-50.94 113.778-113.778s-50.94-113.778-113.778-113.778v0h-149.239zM357.641 125.63c0.228-100.617 11.302-113.778 102.628-113.778h60.909c100.087 0 125.459 22.452 126.028 113.778h-289.564zM758.519 353.185v250.046c0 154.245-119.467 280.917-260.589 280.917h-20.783c-138.581 0-249.591-124.018-249.591-280.917v-250.046h530.963zM720.593 580.741c0-10.473-8.49-18.963-18.963-18.963s-18.963 8.49-18.963 18.963v0c0 91.060-54.993 173.587-140.212 210.11-6.824 2.977-11.507 9.664-11.507 17.446 0 10.482 8.497 18.978 18.978 18.978 2.7 0 5.268-0.564 7.594-1.58l-0.122 0.048c99.1-42.515 163.195-138.695 163.195-245.001zM113.778 277.333c-20.946 0-37.926-16.98-37.926-37.926s16.98-37.926 37.926-37.926v0h758.519c20.946 0 37.926 16.98 37.926 37.926s-16.98 37.926-37.926 37.926v0h-758.519z" />
<glyph unicode="&#xe924;" glyph-name="plus" d="M383.659 63.915v252.672h-252.245c-0.997-0.027-2.171-0.043-3.348-0.043-72.578 0-131.413 58.836-131.413 131.413s58.836 131.413 131.413 131.413c1.177 0 2.351-0.015 3.521-0.046l-0.173 0.004h252.245v252.843c1.844 69.21 58.388 124.611 127.872 124.611s126.028-55.401 127.868-124.441l0.004-0.17v-252.757h253.184c0.997 0.027 2.171 0.043 3.348 0.043 72.578 0 131.413-58.836 131.413-131.413s-58.836-131.413-131.413-131.413c-1.177 0-2.351 0.015-3.521 0.046l0.173-0.004h-253.184v-252.757c0.027-0.984 0.043-2.142 0.043-3.304 0-70.645-57.269-127.915-127.915-127.915s-127.915 57.269-127.915 127.915c0 1.162 0.015 2.32 0.046 3.474l-0.004-0.17z" />
<glyph unicode="&#xe925;" glyph-name="profile" d="M1024 448c0 282.307-229.693 512-512 512s-512-229.693-512-512c0-149.113 64.121-283.518 166.186-377.167l-0.484-0.428 16.607-14.001c1.080-0.912 2.253-1.657 3.333-2.551 8.825-7.317 17.967-14.262 27.276-20.983 3.016-2.178 6.032-4.357 9.104-6.479 9.942-6.851 20.145-13.349 30.571-19.512 2.271-1.341 4.561-2.644 6.851-3.947 11.413-6.498 23.068-12.623 35.002-18.246 0.875-0.41 1.769-0.782 2.644-1.192 38.893-18.078 80.412-31.353 123.83-39.191 1.136-0.205 2.271-0.41 3.426-0.614 13.48-2.327 27.108-4.189 40.904-5.437 1.676-0.149 3.351-0.242 5.046-0.391 13.74-1.136 27.629-1.862 41.705-1.862 13.945 0 27.704 0.726 41.37 1.825 1.731 0.149 3.463 0.242 5.194 0.391 13.684 1.247 27.201 3.053 40.55 5.343 1.154 0.205 2.327 0.41 3.482 0.633 42.766 7.671 83.689 20.648 122.079 38.26 1.415 0.652 2.849 1.266 4.264 1.936 11.487 5.399 22.714 11.227 33.718 17.427 2.737 1.545 5.455 3.109 8.173 4.71 10.017 5.902 19.866 12.065 29.435 18.618 3.444 2.346 6.814 4.822 10.221 7.28 8.173 5.883 16.198 11.953 23.999 18.302 1.731 1.396 3.593 2.607 5.288 4.040l17.036 14.224-0.503 0.428c102.959 93.687 167.694 228.706 167.694 378.582zM37.236 448c0 261.79 212.973 474.764 474.764 474.764s474.764-212.973 474.764-474.764c0-141.070-61.905-267.897-159.912-354.918-5.474 3.779-10.985 7.168-16.626 9.998l-157.64 78.811c-14.15 7.075-22.938 21.299-22.938 37.106v55.054c3.649 4.506 7.503 9.607 11.487 15.211 20.406 28.821 36.771 60.881 48.705 95.381 23.589 11.208 38.819 34.704 38.819 61.235v66.001c0 16.142-5.921 31.8-16.514 44.106v86.891c0.968 9.663 4.394 64.195-35.058 109.177-34.313 39.173-89.851 59.001-165.087 59.001s-130.774-19.828-165.087-58.982c-39.452-44.982-36.026-99.514-35.058-109.177v-86.891c-10.575-12.307-16.514-27.965-16.514-44.106v-66.001c0-20.499 9.197-39.619 24.948-52.522 15.081-59.075 46.117-103.796 57.586-118.952v-53.881c0-15.192-8.285-29.156-21.634-36.454l-147.214-80.3c-4.692-2.551-9.346-5.53-14.001-8.862-96.796 86.984-157.789 213.029-157.789 353.075zM790.509 63.87c-6.516-4.729-13.144-9.309-19.866-13.684-3.091-2.011-6.163-4.022-9.309-5.976-8.788-5.437-17.725-10.612-26.847-15.453-2.011-1.061-4.040-2.067-6.070-3.109-20.964-10.743-42.654-19.977-64.94-27.48-0.782-0.261-1.564-0.54-2.365-0.801-11.674-3.873-23.496-7.317-35.449-10.277-0.037 0-0.074-0.019-0.112-0.019-12.065-2.979-24.278-5.455-36.566-7.485-0.335-0.056-0.67-0.13-1.005-0.186-11.562-1.88-23.217-3.24-34.909-4.264-2.067-0.186-4.133-0.317-6.218-0.465-11.562-0.875-23.18-1.434-34.853-1.434-11.804 0-23.571 0.577-35.281 1.452-2.029 0.149-4.059 0.279-6.070 0.465-11.804 1.043-23.552 2.439-35.188 4.338-0.521 0.093-1.043 0.186-1.564 0.279-24.613 4.115-48.835 10.166-72.425 18.078-0.726 0.242-1.471 0.503-2.197 0.745-11.711 3.984-23.291 8.397-34.667 13.275-0.074 0.037-0.168 0.074-0.242 0.112-10.761 4.636-21.318 9.775-31.744 15.192-1.359 0.707-2.737 1.378-4.077 2.104-9.514 5.083-18.823 10.575-28.002 16.31-2.718 1.713-5.418 3.444-8.099 5.194-8.453 5.53-16.794 11.283-24.911 17.371-0.838 0.633-1.638 1.303-2.476 1.936 0.596 0.335 1.192 0.67 1.787 1.005l147.214 80.3c25.321 13.815 41.053 40.308 41.053 69.148l-0.019 67.063-4.282 5.176c-0.41 0.465-40.662 49.431-55.873 115.731l-1.694 7.373-6.349 4.115c-8.955 5.79-14.317 15.472-14.317 25.917v66.001c0 8.657 3.668 16.719 10.37 22.77l6.144 5.548v103.703l-0.168 2.439c-0.056 0.447-5.548 45.224 25.991 81.175 26.922 30.683 73.058 46.266 137.086 46.266 63.786 0 109.773-15.453 136.769-45.912 31.502-35.579 26.345-81.194 26.307-81.566l-0.168-106.142 6.144-5.548c6.684-6.032 10.37-14.113 10.37-22.77v-66.001c0-13.275-9.030-25.321-21.988-29.324l-9.253-2.849-2.979-9.216c-10.985-34.127-26.624-65.648-46.471-93.687-4.878-6.889-9.626-12.995-13.703-17.669l-4.617-5.269v-68.869c0-30.013 16.682-57.009 43.529-70.414l157.64-78.811c1.005-0.503 1.992-1.024 2.979-1.545-1.992-1.508-4.040-2.904-6.051-4.357z" />
<glyph unicode="&#xe926;" glyph-name="return" horiz-adv-x="1117" d="M589.265 131.863c179.759 0 325.539 150.156 325.539 335.313 0 185.251-145.78 335.313-325.632 335.313-162.63 0-297.425-122.88-321.722-283.369l78.196 0.186c18.153 0 32.954-14.988 33.047-33.792 0.001-0.111 0.002-0.242 0.002-0.373 0-7.494-2.446-14.416-6.583-20.013l0.065 0.092 0.186-0.279-156.672-162.351c-6.054-7.737-15.316-12.723-25.751-12.939l-0.035-0.001c-0.004 0-0.008 0-0.012 0-11.038 0-20.786 5.52-26.635 13.95l-0.070 0.107-150.807 154.345c-1.845 1.559-3.491 3.235-4.973 5.052l-0.054 0.068-0.652 0.652 0.093 0.093c-4.232 5.645-6.781 12.763-6.796 20.477v0.003c-0.003 0.168-0.005 0.366-0.005 0.565 0 18.281 14.638 33.143 32.832 33.506l0.034 0.001 80.337 0.186c24.948 247.994 228.445 441.344 475.974 441.344 264.378 0 478.673-220.625 478.673-492.823 0-271.081-212.62-491.055-475.508-492.823h-3.072c-42.358 0.677-76.436 35.173-76.436 77.629 0 0.396 0.003 0.791 0.009 1.186l-0.001-0.060c0 43.473 34.257 78.755 76.428 78.755z" />
<glyph unicode="&#xe927;" d="M504.9 960c274.701 0 497.391-222.69 497.391-497.391s-222.69-497.391-497.391-497.391c-274.701 0-497.391 222.69-497.391 497.391s222.69 497.391 497.391 497.391z" />
<glyph unicode="&#xe928;" d="M504.9 960c274.701 0 497.391-222.69 497.391-497.391s-222.69-497.391-497.391-497.391c-274.701 0-497.391 222.69-497.391 497.391s222.69 497.391 497.391 497.391z" />
<glyph unicode="&#xe929;" d="M523.264 349.15c65.911 0 119.364 55.057 119.364 122.948 0 67.925-53.453 122.948-119.398 122.948-59.631 0-109.056-45.056-117.965-103.902l28.672 0.068c6.656 0 12.083-5.495 12.117-12.39 0-0.041 0.001-0.089 0.001-0.137 0-2.748-0.897-5.286-2.414-7.338l0.024 0.034 0.068-0.102-57.446-59.529c-2.22-2.837-5.616-4.665-9.442-4.744h-0.013c-0.001 0-0.003 0-0.004 0-4.047 0-7.621 2.024-9.766 5.115l-0.026 0.039-55.296 56.593c-0.676 0.572-1.28 1.186-1.823 1.852l-0.020 0.025-0.239 0.239 0.034 0.034c-1.552 2.070-2.487 4.68-2.492 7.508v0.001c-0.001 0.062-0.002 0.134-0.002 0.207 0 6.703 5.367 12.153 12.038 12.286h0.012l29.457 0.068c9.148 90.931 83.763 161.826 174.524 161.826 96.939 0 175.514-80.896 175.514-180.702 0-99.396-77.961-180.053-174.353-180.702h-1.161c-15.531 0.248-28.026 12.897-28.026 28.464 0 0.145 0.001 0.29 0.003 0.435v-0.022c0 15.94 12.561 28.877 28.023 28.877z" />
<glyph unicode="&#xe92a;" glyph-name="right" horiz-adv-x="597" d="M575.829 397.312l-450.56-440.32c-13.406-12.994-31.709-21.004-51.883-21.004s-38.477 8.010-51.902 21.022l0.019-0.019c-13.274 12.848-21.513 30.827-21.513 50.731s8.24 37.883 21.494 50.712l0.019 0.018 398.677 389.547-398.677 389.547c-13.274 12.848-21.513 30.827-21.513 50.731s8.24 37.883 21.494 50.712l0.019 0.018c13.406 12.994 31.709 21.004 51.883 21.004s38.477-8.010 51.902-21.022l-0.019 0.019 450.56-440.32c13.226-12.854 21.432-30.813 21.432-50.688s-8.206-37.834-21.415-50.672l-0.017-0.016z" />
<glyph unicode="&#xe92b;" glyph-name="rightdouble" d="M879.872 468.907l-377.173-418.987c-6.809-7.538-10.975-17.576-10.975-28.587 0-23.593 19.126-42.719 42.719-42.719 12.582 0 23.893 5.439 31.711 14.095l0.033 0.037 404.224 449.195c6.797 7.527 10.955 17.551 10.955 28.545 0 11.779-4.773 22.444-12.491 30.164l-404.224 404.224c-7.723 7.713-18.387 12.482-30.165 12.482-23.577 0-42.69-19.113-42.69-42.69 0-11.799 4.787-22.48 12.525-30.208v0l375.552-375.552zM430.763 468.907l-377.173-418.987c-6.809-7.538-10.975-17.576-10.975-28.587 0-23.593 19.126-42.719 42.719-42.719 12.582 0 23.893 5.439 31.711 14.095l0.033 0.037 404.139 449.28c6.797 7.527 10.955 17.551 10.955 28.545 0 11.779-4.773 22.444-12.491 30.164l-404.139 404.139c-7.731 7.731-18.411 12.513-30.208 12.513-23.594 0-42.721-19.127-42.721-42.721 0-11.797 4.782-22.477 12.513-30.208v0l375.637-375.552z" />
<glyph unicode="&#xe92c;" glyph-name="search" d="M660.767 221.041l-40.878 43.827c1.106 15.688 10.527 30.72 30.065 50.176 9.503 9.544 17.777 16.425 25.231 21.176 3.604 2.294 7.086 4.096 10.527 5.53 2.54 0.983 2.54 0.983 4.751 1.679 3.072 1.065 3.072 1.065-8.192-3.564l31.949 3.686c8.684-2.54 15.155-7.168 21.299-13.353l244.122-244.122c12.908-12.887 20.894-30.701 20.894-50.381s-7.985-37.494-20.893-50.38l-0.001-0.001c-12.968-12.677-30.73-20.499-50.318-20.499-19.63 0-37.425 7.855-50.414 20.592l0.012-0.011-243.999 243.999c-1.941 1.904-3.751 3.922-5.427 6.050l-0.102 0.135c4.096-2.048 13.107-6.144 31.375-14.541zM411.484 131.994c-226.918 0-411.484 184.525-411.484 411.443s184.566 411.525 411.484 411.525c226.918 0 411.484-184.566 411.484-411.484 0-226.959-184.525-411.484-411.484-411.484zM411.484 803.41c11.311 0 20.48-9.169 20.48-20.48s-9.169-20.48-20.48-20.48v0c-79.696-0.26-149.396-42.809-187.864-106.373l-0.552-0.983c-3.668-5.877-10.1-9.73-17.432-9.73-11.311 0-20.48 9.169-20.48 20.48 0 3.73 0.997 7.226 2.739 10.238l-0.053-0.099c46.294 76.628 129.042 127.132 223.605 127.386h0.037zM411.484 213.914c181.74 0 329.605 147.866 329.564 329.564 0 181.699-147.866 329.564-329.564 329.564s-329.564-147.866-329.564-329.605 147.866-329.564 329.564-329.564zM158.351 602.829c2.184 9.142 10.284 15.833 19.948 15.833 11.312 0 20.482-9.17 20.482-20.482 0-1.649-0.195-3.252-0.563-4.788l0.028 0.139c-4.751-20.398-5.734-26.87-5.734-41.206 0-11.311-9.169-20.48-20.48-20.48s-20.48 9.169-20.48 20.48v0c0 18.022 1.393 27.32 6.799 50.504z" />
<glyph unicode="&#xe92d;" glyph-name="starafter" horiz-adv-x="1075" d="M1042.278 497.408c20.992 20.48 28.365 50.432 19.302 78.336-9.009 27.456-32.513 47.727-61.234 51.919l-0.411 0.049-257.946 37.478c-11.205 1.662-20.483 8.638-25.307 18.238l-0.088 0.194-115.405 233.83c-12.638 25.401-38.415 42.548-68.198 42.548-0.108 0-0.216 0-0.324-0.001h0.017c-29.286 0-55.501-16.333-68.506-42.598l-115.354-233.728c-4.919-9.788-14.194-16.761-25.21-18.409l-0.185-0.023-257.946-37.53c-29.158-4.21-52.69-24.491-61.543-51.432l-0.153-0.536c-2.414-7.087-3.807-15.251-3.807-23.74 0-21.422 8.871-40.771 23.139-54.576l0.021-0.020 186.624-181.914c6.302-6.144 10.212-14.718 10.212-24.205 0-2.012-0.176-3.984-0.513-5.899l0.030 0.203-44.032-256.922c-4.966-28.826 6.656-57.446 30.362-74.701 12.387-9.179 27.971-14.692 44.842-14.692 13.048 0 25.325 3.298 36.045 9.105l-0.4-0.198 230.656 121.293c4.557 2.443 9.97 3.878 15.718 3.878s11.161-1.435 15.9-3.967l-0.182 0.089 230.707-121.344c10.341-5.584 22.635-8.867 35.696-8.867 42.133 0 76.288 34.155 76.288 76.288 0 4.635-0.413 9.173-1.205 13.579l0.069-0.463-44.032 256.922c-0.303 1.699-0.476 3.656-0.476 5.652 0 9.483 3.906 18.053 10.197 24.191l0.007 0.007 186.624 181.965z" />
<glyph unicode="&#xe92e;" glyph-name="starbefore" horiz-adv-x="1075" d="M1042.278 497.408c20.992 20.48 28.365 50.432 19.302 78.336-9.009 27.456-32.513 47.727-61.234 51.919l-0.411 0.049-257.946 37.478c-11.205 1.662-20.483 8.638-25.307 18.238l-0.088 0.194-115.405 233.83c-12.638 25.401-38.415 42.548-68.198 42.548-0.108 0-0.216 0-0.324-0.001h0.017c-29.286 0-55.501-16.333-68.506-42.598l-115.354-233.728c-4.919-9.788-14.194-16.761-25.21-18.409l-0.185-0.023-257.946-37.53c-29.158-4.21-52.69-24.491-61.543-51.432l-0.153-0.536c-2.414-7.087-3.807-15.251-3.807-23.74 0-21.422 8.871-40.771 23.139-54.576l0.021-0.020 186.624-181.914c6.302-6.144 10.212-14.718 10.212-24.205 0-2.012-0.176-3.984-0.513-5.899l0.030 0.203-44.032-256.922c-4.966-28.826 6.656-57.446 30.362-74.701 12.387-9.179 27.971-14.692 44.842-14.692 13.048 0 25.325 3.298 36.045 9.105l-0.4-0.198 230.656 121.293c4.557 2.443 9.97 3.878 15.718 3.878s11.161-1.435 15.9-3.967l-0.182 0.089 230.707-121.344c10.341-5.584 22.635-8.867 35.696-8.867 42.133 0 76.288 34.155 76.288 76.288 0 4.635-0.413 9.173-1.205 13.579l0.069-0.463-44.032 256.922c-0.303 1.699-0.476 3.656-0.476 5.652 0 9.483 3.906 18.053 10.197 24.191l0.007 0.007 186.624 181.965zM803.84 278.374l44.032-256.87c0.353-1.815 0.554-3.901 0.554-6.035 0-11.091-5.45-20.909-13.819-26.921l-0.099-0.068c-5.458-4.073-12.336-6.521-19.787-6.521-5.767 0-11.191 1.467-15.92 4.048l0.174-0.087-230.707 121.344c-10.308 5.499-22.544 8.729-35.535 8.729-13.029 0-25.3-3.249-36.046-8.981l0.413 0.201-230.656-121.344c-4.545-2.481-9.955-3.939-15.706-3.939-7.468 0-14.361 2.46-19.914 6.613l0.087-0.062c-8.491 6.088-13.958 15.928-13.958 27.044 0 2.114 0.198 4.182 0.576 6.187l-0.032-0.206 44.032 256.87c0.697 3.875 1.095 8.336 1.095 12.89 0 21.434-8.827 40.805-23.045 54.678l-0.016 0.015-186.675 182.067c-6.321 6.035-10.251 14.528-10.251 23.938 0 3.802 0.641 7.454 1.822 10.854l-0.070-0.232c3.864 12.194 14.281 21.206 27.014 22.969l0.173 0.020 257.946 37.478c25.397 3.758 46.427 19.574 57.349 41.34l0.2 0.44 115.354 233.728c5.456 11.206 16.758 18.793 29.832 18.793 0.132 0 0.264-0.001 0.396-0.002h-0.020c13.158 0 24.474-7.014 30.31-18.79l115.354-233.779c11.11-22.528 32.614-38.195 57.498-41.779l257.946-37.478c12.927-1.764 23.367-10.781 27.174-22.755l0.064-0.234c1.098-3.153 1.732-6.788 1.732-10.57 0-9.432-3.942-17.944-10.269-23.977l-0.013-0.013-186.624-181.965c-14.233-13.888-23.060-33.26-23.060-54.694 0-4.554 0.398-9.015 1.163-13.35l-0.067 0.459z" />
<glyph unicode="&#xe92f;" glyph-name="tasklist" horiz-adv-x="1106" d="M119.398 719.114l219.709 228.311c7.465 7.758 17.936 12.577 29.532 12.577 22.623 0 40.962-18.339 40.962-40.962 0-11.026-4.357-21.035-11.442-28.398l0.013 0.013-248.873-258.621c-7.464-7.755-17.933-12.572-29.527-12.572-11.393 0-21.699 4.651-29.124 12.159l-78.77 79.753c-8.047 7.5-13.063 18.16-13.063 29.992 0 22.622 18.338 40.96 40.96 40.96 11.975 0 22.749-5.138 30.238-13.331l0.028-0.031 49.357-49.807zM119.398 391.434l219.709 228.311c7.465 7.758 17.936 12.577 29.532 12.577 22.623 0 40.962-18.339 40.962-40.962 0-11.026-4.357-21.035-11.442-28.398l0.013 0.013-248.873-258.621c-7.464-7.755-17.933-12.572-29.527-12.572-11.393 0-21.699 4.651-29.124 12.159l-78.77 79.753c-7.599 7.442-12.311 17.808-12.311 29.273 0 22.622 18.338 40.96 40.96 40.96 11.629 0 22.126-4.846 29.582-12.629l0.014-0.015 49.316-49.848zM573.44 755.2c-22.622 0-40.96 18.338-40.96 40.96s18.338 40.96 40.96 40.96v0h491.52c22.622 0 40.96-18.338 40.96-40.96s-18.338-40.96-40.96-40.96v0h-491.52zM573.44 427.52c-22.622 0-40.96 18.338-40.96 40.96s18.338 40.96 40.96 40.96v0h491.52c22.622 0 40.96-18.338 40.96-40.96s-18.338-40.96-40.96-40.96v0h-491.52zM119.398 63.754l219.709 228.311c7.465 7.758 17.936 12.577 29.532 12.577 22.623 0 40.962-18.339 40.962-40.962 0-11.026-4.357-21.035-11.442-28.398l0.013 0.013-248.873-258.621c-7.464-7.755-17.933-12.572-29.527-12.572-11.393 0-21.699 4.651-29.124 12.159l-78.77 79.753c-7.599 7.442-12.311 17.808-12.311 29.273 0 22.622 18.338 40.96 40.96 40.96 11.629 0 22.126-4.846 29.582-12.629l0.014-0.015 49.316-49.848zM573.44 99.84c-22.622 0-40.96 18.338-40.96 40.96s18.338 40.96 40.96 40.96v0h491.52c22.622 0 40.96-18.338 40.96-40.96s-18.338-40.96-40.96-40.96v0h-491.52z" />
<glyph unicode="&#xe930;" glyph-name="taskmaster" d="M113.766 530.261c-20.924 0-37.888-14.302-37.888-31.983v-451.004c0-17.681 16.964-32.017 37.888-32.017h75.878c20.924 0 37.888 14.336 37.888 32.017v451.004c0 17.681-16.964 32.017-37.888 32.017h-75.878zM113.766 594.295h75.878c62.805 0 113.766-43.008 113.766-96.017v-451.004c0-53.009-50.927-96.017-113.766-96.017h-75.878c-62.805-0.034-113.766 42.974-113.766 96.017v451.004c0 53.043 50.927 96.017 113.766 96.017zM474.112 960h75.844c62.839 0 113.766-43.008 113.766-96.017v-816.708c0-53.009-50.927-96.017-113.766-96.017h-75.844c-62.839 0-113.766 43.008-113.766 96.017v816.708c-0.034 53.077 50.893 96.017 113.732 96.017zM474.112 896c-20.958 0-37.922-14.336-37.922-32.017v-816.708c0-17.681 16.964-32.017 37.888-32.017h75.878c20.958 0 37.922 14.336 37.922 32.017v816.708c0 17.681-16.964 32.017-37.888 32.017h-75.878zM834.389 487.629h75.878c62.805 0 113.766-43.008 113.766-96.017v-344.405c0-52.975-50.927-95.983-113.766-95.983h-75.878c-62.805 0-113.766 43.008-113.766 96.017v344.405c0 53.009 50.927 95.983 113.766 95.983zM834.389 423.629c-20.924 0-37.888-14.336-37.888-32.017v-344.405c0-17.647 16.964-31.983 37.888-31.983h75.878c20.924 0 37.888 14.336 37.888 32.017v344.405c0 17.647-16.964 31.983-37.888 31.983h-75.878z" />
<glyph unicode="&#xe931;" glyph-name="tick" horiz-adv-x="1365" d="M1338.88 933.205c-16.325 16.496-38.97 26.712-64 26.712s-47.675-10.215-63.992-26.704l-0.008-0.008-768.341-776.363-287.744 291.157c-16.327 16.594-39.026 26.877-64.127 26.877-25.059 0-47.724-10.248-64.033-26.781l-0.010-0.010c-16.452-16.664-26.613-39.573-26.613-64.855 0-25.196 10.093-48.035 26.456-64.695l-0.013 0.014 352.085-355.755c16.329-16.522 38.991-26.755 64.043-26.755s47.714 10.232 64.034 26.746l0.009 0.009 832.256 841.131c16.365 16.624 26.47 39.452 26.47 64.64s-10.105 48.017-26.482 64.652l0.012-0.012z" />
<glyph unicode="&#xe932;" horiz-adv-x="1043" d="M512 770.37h18.963c178.040 0 322.37-144.33 322.37-322.37s-144.33-322.37-322.37-322.37h-18.963c-178.040 0-322.37 144.33-322.37 322.37s144.33 322.37 322.37 322.37z" />
<glyph unicode="&#xe933;" horiz-adv-x="1043" d="M512 770.37h18.963c178.040 0 322.37-144.33 322.37-322.37s-144.33-322.37-322.37-322.37h-18.963c-178.040 0-322.37 144.33-322.37 322.37s144.33 322.37 322.37 322.37z" />
<glyph unicode="&#xe934;" horiz-adv-x="1043" d="M691.617 570.197c-4.267 4.175-10.112 6.751-16.559 6.751-0.018 0-0.037 0-0.055 0h0.003c-6.22 0-12.193-2.427-16.593-6.751l-199.168-195.527-74.619 73.33c-4.287 4.196-10.161 6.785-16.64 6.785-6.46 0-12.319-2.574-16.607-6.752l0.005 0.005c-4.257-4.145-6.898-9.932-6.898-16.336 0-6.395 2.633-12.174 6.874-16.313l0.005-0.004 91.288-89.581c4.399-4.324 10.373-6.751 16.593-6.751s12.193 2.427 16.612 6.751l215.761 211.835c4.232 4.136 6.856 9.901 6.856 16.28s-2.624 12.144-6.852 16.275l-0.004 0.004z" />
<glyph unicode="&#xe935;" glyph-name="up" horiz-adv-x="1664" d="M1452.288 82.432c22.309-19.357 51.633-31.153 83.712-31.153 70.719 0 128.049 57.329 128.049 128.049 0 38.64-17.115 73.283-44.178 96.761l-0.159 0.135-755.328 652.672c-22.298 19.34-51.604 31.126-83.663 31.126-35.364 0-67.378-14.341-90.545-37.525l-652.801-652.673c-23.149-23.165-37.466-55.159-37.466-90.496 0-70.707 57.319-128.026 128.026-128.026 35.369 0 67.389 14.343 90.559 37.529l568.705 568.449 665.216-574.72z" />
<glyph unicode="&#xe936;" glyph-name="upborder" horiz-adv-x="1229" d="M256.205 115.917l315.392 552.96 315.597-552.96h-630.989zM1055.642-64c78.029 0 110.080 54.989 71.373 122.778l-485.274 850.33c-38.707 67.891-101.376 67.891-140.083 0l-485.274-850.227c-38.605-67.891-6.758-122.88 71.373-122.88h967.885z" />
<glyph unicode="&#xe937;" glyph-name="upfill" horiz-adv-x="2048" d="M139.878 75.878l826.163 826.163c14.828 14.844 35.321 24.026 57.958 24.026s43.131-9.182 57.958-24.025l826.164-826.164c14.844-14.828 24.026-35.321 24.026-57.958 0-45.243-36.677-81.92-81.92-81.92-0.023 0-0.045 0-0.068 0h-1652.323c-0.019 0-0.042 0-0.064 0-45.243 0-81.92 36.677-81.92 81.92 0 22.638 9.182 43.131 24.025 57.958l0.001 0.001z" />
<glyph unicode="&#xe938;" glyph-name="verticaldots" horiz-adv-x="228" d="M113.778 732.444c-62.838 0-113.778 50.94-113.778 113.778s50.94 113.778 113.778 113.778v0c62.838 0 113.778-50.94 113.778-113.778s-50.94-113.778-113.778-113.778v0zM113.778 334.222c-62.838 0-113.778 50.94-113.778 113.778s50.94 113.778 113.778 113.778v0c62.838 0 113.778-50.94 113.778-113.778s-50.94-113.778-113.778-113.778v0zM113.778-64c-62.838 0-113.778 50.94-113.778 113.778s50.94 113.778 113.778 113.778v0c62.838 0 113.778-50.94 113.778-113.778s-50.94-113.778-113.778-113.778v0z" />
<glyph unicode="&#xe939;" glyph-name="evening" horiz-adv-x="1152" d="M920.678-41.651c32.154 8.448 62.131 16.384 62.131 16.384h-0.051l-139.315-36.762c-1.537-0.379-3.302-0.597-5.118-0.597-12.286 0-22.246 9.96-22.246 22.246 0 10.069 6.689 18.575 15.866 21.318l0.157 0.040 117.504 30.976-81.715 300.211c-7.204-1.056-15.523-1.66-23.983-1.664h-0.004c-99.174 0-181.043 83.354-219.034 222.925-0.609 1.573-2.134 7.411-3.574 13.283l-0.855 4.125c-11.137 44.851-17.527 96.341-17.527 149.324 0 4.798 0.052 9.584 0.157 14.357l-0.012-0.711c0.241 10.055 7.118 18.439 16.407 20.956l0.156 0.036 291.891 77.005c9.472 2.509 19.456-1.485 24.602-9.83 30.098-48.021 54.933-103.479 71.626-162.36l1.103-4.552c26.061-95.616 21.632-177.664-12.774-237.286-19.276-33.572-48.709-59.45-84.058-73.781l-1.139-0.408 81.741-300.288 117.888 31.104c1.537 0.379 3.302 0.597 5.118 0.597 12.286 0 22.246-9.96 22.246-22.246 0-10.069-6.689-18.575-15.866-21.318l-0.157-0.040-201.165-53.069zM535.347 713.805c0.096-4.133 0.15-9.002 0.15-13.884 0-59.206-8.016-116.54-23.021-170.976l1.060 4.508c-37.99-139.622-119.885-222.976-219.034-222.976-7.936 0-15.974 0.589-23.987 1.69l-81.715-300.211 117.504-30.976c9.957-2.352 17.253-11.163 17.253-21.679 0-12.286-9.96-22.246-22.246-22.246-2.254 0-4.429 0.335-6.479 0.958l0.158-0.041-278.4 73.421c-9.957 2.352-17.253 11.163-17.253 21.679 0 12.286 9.96 22.246 22.246 22.246 2.254 0 4.429-0.335 6.479-0.958l-0.158 0.041 117.888-31.104 81.741 300.288c-36.488 14.739-65.921 40.617-84.759 73.363l-0.438 0.825c-34.406 59.597-38.835 141.645-12.8 237.312 17.799 63.424 42.633 118.873 74.314 169.607l-1.584-2.721c3.985 6.382 10.97 10.565 18.933 10.565 2.015 0 3.968-0.268 5.825-0.77l-0.156 0.036 291.917-76.979c9.445-2.553 16.322-10.937 16.563-20.965l0.001-0.027zM470.63 545.101c2.125 7.808 4.070 15.693 5.862 23.68-32.947 4.096-70.042-0.461-111.821-5.632-37.018-4.582-76.851-9.523-120.576-9.523-26.573 0-54.605 1.894-84.301 6.707-6.912-56.294 0.128-104.090 21.043-140.314 17.113-29.775 45.132-51.647 78.476-60.323l0.884-0.195c11.418-2.995 22.963-4.531 34.304-4.531 77.875 0 143.718 71.091 176.128 190.157zM484.608 612.531c4.045 27.597 6.221 55.706 6.4 83.61l-179.763 47.411c-6.272-11.341-13.312-25.651-20.48-41.779-3.555-7.843-11.315-13.2-20.326-13.2-12.288 0-22.25 9.962-22.25 22.25 0 3.277 0.708 6.388 1.98 9.189l-0.057-0.14c4.608 10.317 10.496 23.014 16.896 35.328l-35.328 9.344c-23.986-40.573-44.197-87.452-58.215-136.933l-1.023-4.226c-1.792-6.502-3.379-12.954-4.864-19.302 72.243-11.571 135.347-3.763 191.616 3.2 44.006 5.453 85.965 10.598 125.389 5.248zM851.942-61.747v0zM647.398 696.141c0.256-41.011 4.813-82.483 13.312-122.086 75.469-13.44 140.442-5.171 198.17 2.202 10.291 1.306 20.48 2.611 30.541 3.738-1.792 11.725-4.454 25.395-7.834 40.243-0.351 1.481-0.553 3.181-0.553 4.928 0 12.281 9.955 22.236 22.236 22.236 10.534 0 19.356-7.324 21.654-17.158l0.030-0.15c2.995-13.158 6.502-30.131 8.883-46.413 4.030 0.195 8.753 0.306 13.501 0.306 9.813 0 19.515-0.474 29.085-1.399l-1.216 0.095c-3.074 16.893-6.288 30.605-10.077 44.076l0.81-3.372c-15.040 53.706-35.251 100.584-60.767 143.969l1.528-2.81-259.328-68.403zM843.904 354.97c11.341 0 22.886 1.536 34.304 4.557 34.224 8.866 62.243 30.728 79.033 59.877l0.327 0.616c17.971 31.155 25.702 70.886 23.117 117.197-34.15 5.376-72.576 0.486-116.173-5.069-36.966-4.71-76.749-9.805-120.576-9.805-22.502 0-46.080 1.382-70.861 4.787 33.946-108.186 96.973-172.16 170.829-172.16zM569.216 960c12.288 0 22.221-9.958 22.221-22.246v-57.984c-0.418-11.957-10.213-21.492-22.234-21.492s-21.815 9.534-22.233 21.454l-0.001 0.038v57.984c0 12.288 9.958 22.246 22.221 22.246zM497.229 850.944c2.133-3.353 3.399-7.438 3.399-11.819 0-12.286-9.96-22.246-22.246-22.246-8.378 0-15.675 4.632-19.469 11.474l-0.058 0.114-29.44 50.227c-2.234 3.41-3.563 7.588-3.563 12.076 0 12.286 9.96 22.246 22.246 22.246 8.481 0 15.854-4.746 19.607-11.727l0.058-0.119 29.44-50.202zM701.082 909.107c6.615-3.937 10.979-11.050 10.979-19.182 0-4.139-1.13-8.014-3.099-11.334l0.056 0.103-29.466-50.227c-3.932-6.626-11.049-10.998-19.187-10.998-12.281 0-22.236 9.956-22.236 22.236 0 4.142 1.133 8.020 3.105 11.341l-0.056-0.103 29.466 50.227c3.935 6.622 11.052 10.99 19.189 10.99 4.147 0 8.029-1.135 11.352-3.111l-0.102 0.056zM908.442 691.558c0.564-1.865 0.889-4.008 0.889-6.227 0-12.286-9.96-22.246-22.246-22.246-9.723 0-17.989 6.237-21.015 14.928l-0.047 0.156-0.154 0.461c-0.609 1.934-0.96 4.158-0.96 6.464 0 12.279 9.954 22.234 22.234 22.234 9.973 0 18.413-6.567 21.231-15.612l0.042-0.158zM244.557 630.938c-0.225-0.008-0.489-0.013-0.755-0.013-12.286 0-22.246 9.96-22.246 22.246s9.96 22.246 22.246 22.246c0.265 0 0.53-0.005 0.793-0.014l-0.038 0.001c11.957-0.418 21.492-10.213 21.492-22.234s-9.534-21.815-21.454-22.233l-0.038-0.001z" />
<glyph unicode="&#xe93a;" glyph-name="afternoon" horiz-adv-x="1510" d="M751.949-64c-282.496 0-512.333 229.683-512.333 512s229.837 512 512.333 512c282.47 0 512.282-229.683 512.282-512s-229.811-512-512.282-512zM751.949 923.008c-262.093 0-475.315-213.094-475.315-475.008s213.222-475.008 475.315-475.008c262.067 0 475.29 213.094 475.29 475.008s-213.248 475.008-475.29 475.008zM130.56-42.803h-52.352c0 0 0 0 0 0-10.213 0-18.494 8.272-18.509 18.482v575.489c-35.251 15.693-59.699 49.331-59.699 88.218v259.686c0 10.222 8.287 18.509 18.509 18.509s18.509-8.287 18.509-18.509v0-241.152h20.224v241.152c0 10.222 8.287 18.509 18.509 18.509s18.509-8.287 18.509-18.509v0-241.152h20.25v241.152c0 10.222 8.287 18.509 18.509 18.509s18.509-8.287 18.509-18.509v0-241.152h20.224v241.152c0 10.222 8.287 18.509 18.509 18.509s18.509-8.287 18.509-18.509v0-259.661c0-38.886-24.422-72.525-59.699-88.218v-575.488c-0.015-10.211-8.296-18.483-18.509-18.483v0zM96.717-5.811h15.36v547.584h-15.36v-547.584zM40.192 620.877c8.704-24.397 34.176-42.112 64.179-42.112 29.978 0 55.45 17.715 64.154 42.138h-128.307zM1423.693-38.042h-54.016c-10.222 0-18.509 8.287-18.509 18.509v0 929.178c0.007 10.217 8.291 18.496 18.509 18.496 5.394 0 10.25-2.308 13.633-5.99l0.012-0.013c4.147-4.557 101.888-113.075 119.322-266.88 16.973-149.555 0.768-396.288 0.077-406.733-0.663-9.667-8.658-17.26-18.43-17.28h-42.088v-250.778c0-0.008 0-0.017 0-0.026 0-10.208-8.275-18.483-18.483-18.483-0.009 0-0.018 0-0.027 0h0.001zM1388.16-1.050h17.024v232.294h-17.024v-232.294zM1388.16 268.262h78.72c3.379 59.469 13.107 258.893-0.973 382.822-9.882 87.219-48.947 160-77.722 203.264v-586.112zM751.923 96.589c-193.894 0-351.642 157.645-351.642 351.411s157.798 351.411 351.667 351.411c193.869 0 351.59-157.645 351.59-351.411 0-193.792-157.722-351.411-351.59-351.411zM751.923 762.419c-173.491 0-314.624-141.056-314.624-314.419s141.133-314.419 314.624-314.419c173.466 0 314.598 141.056 314.598 314.419s-141.107 314.419-314.598 314.419zM387.84 681.318c-0.004 0-0.008 0-0.012 0-10.208 0-18.483 8.275-18.483 18.483 0 3.591 1.024 6.943 2.797 9.78l-0.045-0.078c61.235 99.405 174.336 152.269 179.098 154.47 2.084 0.883 4.508 1.396 7.052 1.396 10.222 0 18.509-8.287 18.509-18.509 0-7.142-4.046-13.34-9.97-16.426l-0.102-0.049c-1.050-0.512-107.827-50.586-163.072-140.288-3.317-5.305-9.125-8.781-15.746-8.781-0.008 0-0.016 0-0.025 0h0.001zM964.429 632.55c11.674-12.979 24.909-27.648 24.909-47.232s-13.235-34.304-24.934-47.258c-5.581-6.195-10.854-12.032-14.157-17.741-3.482-6.067-6.067-13.798-8.806-21.99-5.453-16.384-11.648-34.944-27.93-44.365-7.424-4.275-15.36-5.76-23.475-5.76-9.216 0-18.688 1.894-27.981 3.738-8.704 1.741-16.973 3.379-24.448 3.379-7.45 0-15.718-1.638-24.422-3.379-17.536-3.507-35.686-7.091-51.456 2.048-16.282 9.395-22.477 27.955-27.955 44.339-2.714 8.192-5.299 15.923-8.806 21.99-3.302 5.683-8.576 11.546-14.157 17.741-11.674 12.979-24.934 27.674-24.934 47.258 0 19.558 13.261 34.278 24.934 47.232 5.606 6.195 10.854 12.032 14.157 17.741 3.507 6.042 6.093 13.773 8.832 21.965 5.453 16.384 11.648 34.97 27.93 44.365 15.77 9.139 33.894 5.53 51.456 2.048 8.704-1.741 16.973-3.379 24.422-3.379 7.475 0 15.718 1.638 24.448 3.379 17.536 3.482 35.686 7.091 51.456-2.048 16.282-9.395 22.477-27.955 27.955-44.339 2.714-8.192 5.299-15.923 8.806-21.965 3.277-5.709 8.576-11.571 14.157-17.766zM948.301 552.55c9.984 11.059 19.379 21.504 19.379 32.768s-9.421 21.683-19.379 32.742c-6.067 6.758-12.365 13.747-16.819 21.402-4.582 7.962-7.654 17.126-10.598 25.984-4.659 13.952-9.062 27.136-18.227 32.461-8.704 5.018-22.144 2.355-36.352-0.486-9.395-1.869-19.098-3.789-28.672-3.789-9.626 0-19.328 1.92-28.698 3.789-8.448 1.664-16.563 3.302-23.603 3.302-4.864 0-9.216-0.768-12.749-2.816-9.19-5.325-13.568-18.509-18.253-32.486-2.944-8.858-5.99-17.997-10.598-25.958-4.429-7.68-10.726-14.643-16.794-21.402-9.984-11.059-19.379-21.504-19.379-32.768 0-11.238 9.421-21.683 19.379-32.742 6.067-6.733 12.365-13.747 16.794-21.402 4.608-7.936 7.68-17.126 10.624-25.984 4.659-13.952 9.062-27.136 18.227-32.461 8.704-5.018 22.144-2.33 36.352 0.486 9.37 1.869 19.072 3.814 28.672 3.814s19.302-1.946 28.698-3.814c14.234-2.816 27.648-5.504 36.352-0.461 9.19 5.299 13.568 18.509 18.227 32.461 2.97 8.858 6.016 18.022 10.624 25.958 4.429 7.68 10.726 14.643 16.794 21.402zM837.606 650.291c35.866 0 65.024-29.133 65.024-64.973s-29.158-64.998-65.024-64.998c-35.84 0-65.024 29.158-65.024 64.998s29.184 64.973 65.024 64.973zM837.606 542.003c23.91 0 43.366 19.405 43.366 43.315-1.006 23.166-20.031 41.567-43.354 41.567s-42.348-18.4-43.35-41.476l-0.003-0.091c0-23.91 19.456-43.341 43.341-43.341zM800.256 379.648h-205.824c-0.004 0-0.008 0-0.013 0-6.306 0-11.418-5.112-11.418-11.418 0-3.264 1.37-6.209 3.566-8.29l0.005-0.005 3.328-3.123h-98.355c-0.004 0-0.008 0-0.013 0-6.306 0-11.418-5.112-11.418-11.418 0-3.264 1.37-6.209 3.566-8.29l0.005-0.005 205.773-194.253c2.043-1.941 4.812-3.135 7.859-3.135 6.306 0 11.418 5.112 11.418 11.418 0 0.013 0 0.027 0 0.040v-0.002 93.44l83.61-78.899c2.043-1.941 4.811-3.135 7.859-3.135 6.306 0 11.418 5.112 11.418 11.418 0 0.004 0 0.009 0 0.013v-0.001 194.227c0 6.323-5.12 11.418-11.418 11.418zM685.926 177.664l-165.581 156.288h93.798l71.782-67.763v-88.525zM788.838 200.525l-165.632 156.288h165.632v-156.288z" />
<glyph unicode="&#xe93b;" glyph-name="logout" d="M158.915 401.455h539.26c25.706 0 46.545 20.84 46.545 46.545s-20.84 46.545-46.545 46.545h-539.26l60.18 60.177c18.178 18.174 18.178 47.647 0 65.825-18.171 18.178-47.644 18.178-65.825 0l-139.627-139.627c-1.080-1.077-2.098-2.203-3.066-3.382-0.236-0.289-0.438-0.599-0.667-0.894-0.711-0.903-1.409-1.809-2.048-2.765-0.186-0.279-0.338-0.574-0.521-0.856-0.639-0.999-1.266-2.008-1.831-3.060-0.109-0.208-0.199-0.428-0.307-0.636-0.586-1.139-1.151-2.293-1.645-3.485-0.062-0.146-0.106-0.301-0.164-0.45-0.506-1.254-0.974-2.523-1.372-3.829-0.053-0.164-0.081-0.335-0.127-0.503-0.375-1.282-0.72-2.576-0.984-3.901-0.078-0.394-0.112-0.801-0.183-1.198-0.192-1.098-0.385-2.197-0.493-3.317-0.158-1.536-0.236-3.088-0.236-4.645s0.078-3.109 0.236-4.648c0.109-1.136 0.307-2.243 0.496-3.351 0.068-0.385 0.102-0.779 0.18-1.161 0.267-1.337 0.608-2.644 0.987-3.938 0.047-0.152 0.074-0.313 0.121-0.465 0.4-1.313 0.869-2.594 1.381-3.86 0.056-0.137 0.096-0.282 0.155-0.419 0.496-1.201 1.064-2.361 1.657-3.506 0.102-0.202 0.189-0.413 0.295-0.614 0.571-1.058 1.201-2.076 1.849-3.084 0.174-0.273 0.323-0.562 0.503-0.829 0.642-0.959 1.347-1.871 2.054-2.777 0.227-0.292 0.428-0.599 0.661-0.884 0.971-1.176 1.989-2.306 3.066-3.382l139.627-139.627c9.089-9.092 21.001-13.635 32.914-13.635s23.825 4.543 32.911 13.635c18.178 18.178 18.178 47.647 0 65.825l-60.177 60.177zM643.255 828.745c-127.050 0-245.257-63.029-316.208-168.597-14.336-21.333-8.664-50.254 12.67-64.593 21.336-14.336 50.254-8.67 64.596 12.67 53.623 79.794 142.947 127.432 238.943 127.432 158.611-0.003 287.654-129.043 287.654-287.657s-129.043-287.654-287.654-287.654c-95.713 0-184.891 47.424-238.555 126.855-14.395 21.302-43.321 26.9-64.627 12.511-21.299-14.392-26.903-43.325-12.511-64.624 71-105.093 189.015-167.834 315.693-167.834 209.942 0 380.745 170.8 380.745 380.745s-170.803 380.745-380.745 380.745z" />
</font>
</defs>
</svg>
